{"glyphs":{"0":{"ha":583,"x_min":49,"x_max":534,"o":"m 437 607 q 430 654 437 632 q 409 693 422 677 q 378 720 395 710 q 340 729 360 729 l 243 729 q 205 720 222 729 q 174 693 187 710 q 153 654 161 677 q 146 607 146 632 l 146 364 q 153 317 146 339 q 174 278 161 295 q 205 252 187 262 q 243 243 222 243 l 340 243 q 379 252 361 243 q 410 278 397 262 q 430 316 422 294 q 437 364 437 338 l 437 607 m 534 243 q 479 71 534 140 q 340 0 420 0 l 243 0 q 104 71 163 0 q 62 150 76 106 q 49 243 49 193 l 49 729 q 104 900 49 830 q 243 972 163 972 l 340 972 q 478 900 420 972 q 534 729 534 828 l 534 243 z "},"1":{"ha":583,"x_min":195,"x_max":389,"o":"m 195 0 l 195 243 l 243 243 l 243 729 l 195 729 l 195 972 l 340 972 l 340 243 l 389 243 l 389 0 l 195 0 z "},"2":{"ha":583,"x_min":49,"x_max":534,"o":"m 49 0 l 49 304 q 106 475 49 404 q 243 547 163 547 l 315 547 q 343 554 330 547 q 367 574 357 562 q 383 602 377 586 q 389 637 389 618 q 383 673 389 656 q 367 702 377 690 q 343 722 357 715 q 315 729 330 729 l 49 729 l 49 972 l 340 972 q 478 900 420 972 q 534 729 534 828 l 534 668 q 478 497 534 569 q 415 444 450 462 q 340 425 380 425 l 218 425 q 190 418 203 425 q 167 398 177 410 q 152 370 157 386 q 146 335 146 353 l 146 243 l 534 243 l 534 0 l 49 0 z "},"3":{"ha":583,"x_min":49,"x_max":534,"o":"m 534 243 q 478 72 534 144 q 340 0 421 0 l 49 0 l 49 243 l 315 243 q 343 250 330 243 q 367 270 357 258 q 383 299 377 283 q 389 335 389 316 q 383 370 389 353 q 367 398 377 386 q 343 418 357 410 q 315 425 330 425 l 146 425 l 146 547 l 315 547 q 343 554 330 547 q 367 574 357 562 q 383 602 377 586 q 389 637 389 618 q 383 673 389 656 q 367 702 377 690 q 343 722 357 715 q 315 729 330 729 l 49 729 l 49 972 l 340 972 q 478 900 420 972 q 534 729 534 828 l 534 717 q 525 642 534 678 q 497 575 516 606 q 454 520 478 543 q 401 486 431 498 q 457 450 433 473 q 499 394 482 426 q 525 323 516 362 q 534 243 534 285 z "},"4":{"ha":583,"x_min":49,"x_max":534,"o":"m 437 0 l 437 170 l 49 170 l 49 729 l 146 729 l 146 412 l 437 412 l 437 972 l 534 972 l 534 0 l 437 0 z "},"5":{"ha":583,"x_min":49,"x_max":534,"o":"m 534 243 q 478 72 534 144 q 340 0 421 0 l 49 0 l 49 243 l 315 243 q 343 250 330 243 q 367 270 357 258 q 383 299 377 283 q 389 335 389 316 q 383 370 389 353 q 367 398 377 386 q 343 418 357 410 q 315 425 330 425 l 49 425 l 49 972 l 486 972 l 486 729 l 146 729 l 146 547 l 340 547 q 478 475 420 547 q 534 304 534 404 l 534 243 z "},"6":{"ha":583,"x_min":49,"x_max":534,"o":"m 437 335 q 432 370 437 353 q 416 398 426 386 q 392 418 406 410 q 364 425 379 425 l 218 425 q 190 418 203 425 q 167 398 177 410 q 152 370 157 386 q 146 335 146 353 q 152 299 146 316 q 167 270 157 283 q 190 250 177 258 q 218 243 203 243 l 364 243 q 392 250 379 243 q 416 270 406 258 q 432 299 426 283 q 437 335 437 316 m 534 243 q 479 71 534 140 q 340 0 420 0 l 243 0 q 106 72 161 0 q 49 243 49 143 l 49 729 q 62 823 49 781 q 104 901 76 866 q 243 972 162 972 l 486 972 l 486 729 l 243 729 q 204 720 222 729 q 174 694 186 710 q 153 655 161 677 q 146 607 146 633 l 146 450 q 152 488 146 470 q 169 518 158 505 q 193 539 179 532 q 224 547 208 547 l 340 547 q 478 475 420 547 q 534 304 534 404 l 534 243 z "},"7":{"ha":583,"x_min":49,"x_max":534,"o":"m 184 0 l 49 0 l 399 729 l 49 729 l 49 972 l 534 972 l 534 729 l 184 0 z "},"8":{"ha":583,"x_min":49,"x_max":534,"o":"m 437 335 q 432 370 437 353 q 416 398 426 386 q 392 418 406 410 q 364 425 379 425 l 218 425 q 190 418 203 425 q 167 398 177 410 q 152 370 157 386 q 146 335 146 353 q 152 299 146 316 q 167 270 157 283 q 190 250 177 258 q 218 243 203 243 l 364 243 q 392 250 379 243 q 416 270 406 258 q 432 299 426 283 q 437 335 437 316 m 437 637 q 432 673 437 656 q 416 702 426 690 q 392 722 406 715 q 364 729 379 729 l 218 729 q 190 722 203 729 q 167 702 177 715 q 152 673 157 690 q 146 637 146 656 q 152 602 146 618 q 167 574 157 586 q 190 554 177 562 q 218 547 203 547 l 364 547 q 392 554 379 547 q 416 574 406 562 q 432 602 426 586 q 437 637 437 618 m 534 243 q 479 71 534 140 q 340 0 420 0 l 243 0 q 104 71 163 0 q 62 149 76 106 q 49 243 49 192 l 49 279 q 72 399 49 347 q 140 486 96 450 q 72 573 96 522 q 49 693 49 625 l 49 729 q 62 823 49 781 q 104 901 76 866 q 243 972 162 972 l 340 972 q 479 901 420 972 q 534 729 534 832 l 534 693 q 441 486 534 557 q 534 279 534 414 l 534 243 z "},"9":{"ha":583,"x_min":49,"x_max":534,"o":"m 437 637 q 432 673 437 656 q 416 702 426 690 q 392 722 406 715 q 364 729 379 729 l 218 729 q 190 722 203 729 q 167 702 177 715 q 152 673 157 690 q 146 637 146 656 q 152 602 146 618 q 167 574 157 586 q 190 554 177 562 q 218 547 203 547 l 364 547 q 392 554 379 547 q 416 574 406 562 q 432 602 426 586 q 437 637 437 618 m 534 243 q 479 71 534 140 q 340 0 420 0 l 97 0 l 97 243 l 340 243 q 379 252 361 243 q 410 278 397 262 q 430 316 422 294 q 437 364 437 338 l 437 522 q 431 485 437 503 q 415 454 425 467 q 390 433 404 441 q 359 425 376 425 l 243 425 q 168 444 202 425 q 106 497 134 462 q 49 668 49 568 l 49 729 q 62 823 49 781 q 104 901 76 866 q 243 972 162 972 l 340 972 q 478 900 420 972 q 534 729 534 828 l 534 243 z "}," ":{"ha":437,"x_min":0,"x_max":0,"o":""},"!":{"ha":233,"x_min":49,"x_max":184,"o":"m 49 0 l 49 170 l 184 170 l 184 0 l 49 0 m 146 292 l 87 292 l 49 972 l 184 972 l 146 292 z "},"\"":{"ha":447,"x_min":49,"x_max":399,"o":"m 146 693 l 87 693 l 49 1034 l 184 1034 l 146 693 m 359 693 l 301 693 l 262 1034 l 399 1034 l 359 693 z "},"#":{"ha":603,"x_min":49,"x_max":554,"o":"m 249 729 l 237 583 l 354 583 l 366 729 l 249 729 m 425 486 l 415 340 l 338 340 l 347 486 l 231 486 l 221 340 l 143 340 l 153 486 l 49 486 l 49 583 l 160 583 l 171 729 l 49 729 l 49 827 l 178 827 l 187 972 l 265 972 l 256 827 l 372 827 l 382 972 l 460 972 l 450 827 l 554 827 l 554 729 l 443 729 l 432 583 l 554 583 l 554 486 l 425 486 z "},"$":{"ha":583,"x_min":49,"x_max":534,"o":"m 534 364 q 478 193 534 264 q 415 139 450 157 q 340 121 380 121 l 340 0 l 243 0 l 243 121 l 49 121 l 49 364 l 340 364 q 359 369 351 364 q 374 383 368 374 q 385 402 381 391 q 389 425 389 413 q 385 449 389 437 q 374 468 381 460 q 359 481 368 477 q 340 486 351 486 l 243 486 q 106 558 161 486 q 49 729 49 629 q 106 900 49 829 q 243 972 163 972 l 243 1093 l 340 1093 l 340 972 l 534 972 l 534 729 l 243 729 q 224 724 233 729 q 209 711 216 720 q 198 691 202 703 q 195 668 195 680 q 198 645 195 656 q 209 626 202 634 q 224 612 216 617 q 243 607 233 607 l 340 607 q 478 536 421 607 q 534 364 534 465 z "},"%":{"ha":1040,"x_min":49,"x_max":991,"o":"m 340 699 q 335 734 340 718 q 319 763 329 751 q 295 783 309 776 q 267 790 281 790 l 195 790 q 166 783 179 790 q 142 763 153 776 q 126 734 132 751 q 121 699 121 718 l 121 607 q 126 572 121 589 q 142 544 132 556 q 166 524 153 531 q 195 517 179 517 l 267 517 q 296 524 282 517 q 319 543 309 530 q 335 571 329 555 q 340 607 340 587 l 340 699 m 918 364 q 912 399 918 382 q 897 428 907 416 q 874 448 888 441 q 846 456 861 456 l 772 456 q 744 448 758 456 q 721 428 731 441 q 706 399 711 416 q 700 364 700 382 l 700 273 q 706 238 700 255 q 721 209 711 222 q 744 189 731 197 q 772 182 758 182 l 846 182 q 874 189 861 182 q 898 208 888 196 q 913 237 907 220 q 918 273 918 254 l 918 364 m 412 517 q 371 386 412 440 q 267 335 330 335 l 195 335 q 92 387 134 335 q 59 446 70 414 q 49 517 49 479 l 49 790 q 59 860 49 828 q 92 918 70 892 q 195 972 134 972 l 267 972 q 371 918 329 972 q 412 790 412 867 l 412 517 m 471 0 l 471 972 l 568 972 l 568 0 l 471 0 m 991 182 q 949 53 991 106 q 846 0 908 0 l 772 0 q 669 53 712 0 q 627 182 627 108 l 627 456 q 669 585 627 530 q 772 637 712 637 l 846 637 q 949 585 906 637 q 991 456 991 530 l 991 182 z "},"&":{"ha":583,"x_min":49,"x_max":534,"o":"m 379 425 l 267 425 q 239 418 252 425 q 216 398 226 410 q 200 370 206 386 q 195 335 195 353 q 200 299 195 316 q 216 270 206 283 q 239 250 226 258 q 267 243 252 243 l 379 243 l 379 425 m 243 0 q 106 72 161 0 q 49 243 49 143 q 58 323 49 285 q 84 394 67 362 q 126 450 101 426 q 182 486 151 473 q 126 523 151 499 q 84 578 101 547 q 58 649 67 610 q 49 729 49 687 q 106 900 49 829 q 243 972 163 972 l 534 972 l 534 729 l 267 729 q 239 722 252 729 q 216 702 226 715 q 200 673 206 690 q 195 637 195 656 q 200 602 195 618 q 216 574 206 586 q 239 554 226 562 q 267 547 252 547 l 534 547 l 534 425 l 476 425 l 476 243 l 534 243 l 534 0 l 243 0 z "},"'":{"ha":233,"x_min":49,"x_max":184,"o":"m 146 693 l 87 693 l 49 1034 l 184 1034 l 146 693 z "},"(":{"ha":340,"x_min":49,"x_max":243,"o":"m 243 -122 q 168 -104 202 -122 q 106 -50 134 -85 q 49 121 49 21 l 49 850 q 106 1022 49 951 q 243 1093 161 1093 l 243 850 q 205 840 222 850 q 174 814 187 831 q 153 776 161 798 q 146 729 146 754 l 146 243 q 153 196 146 218 q 174 157 161 174 q 205 131 187 140 q 243 121 222 121 l 243 -122 z "},")":{"ha":340,"x_min":97,"x_max":292,"o":"m 292 121 q 235 -50 292 22 q 172 -104 206 -85 q 97 -122 137 -122 l 97 121 q 135 131 117 121 q 166 157 153 140 q 187 196 179 174 q 195 243 195 218 l 195 729 q 187 776 195 754 q 166 814 179 798 q 135 840 153 831 q 97 850 117 850 l 97 1093 q 172 1076 137 1093 q 235 1022 206 1058 q 292 850 292 951 l 292 121 z "},"*":{"ha":472,"x_min":49,"x_max":424,"o":"m 385 566 l 275 646 l 275 486 l 197 486 l 197 646 l 87 566 l 49 650 l 158 729 l 49 808 l 87 893 l 197 812 l 197 972 l 275 972 l 275 812 l 385 893 l 424 808 l 314 729 l 424 650 l 385 566 z "},"+":{"ha":486,"x_min":49,"x_max":437,"o":"m 282 376 l 282 182 l 204 182 l 204 376 l 49 376 l 49 473 l 204 473 l 204 668 l 282 668 l 282 473 l 437 473 l 437 376 l 282 376 z "},",":{"ha":233,"x_min":49,"x_max":184,"o":"m 146 -171 l 87 -171 l 49 170 l 184 170 l 146 -171 z "},"-":{"ha":486,"x_min":49,"x_max":437,"o":"m 49 376 l 49 473 l 437 473 l 437 376 l 49 376 z "},"­":{"ha":486,"x_min":49,"x_max":437,"o":"m 49 376 l 49 473 l 437 473 l 437 376 l 49 376 z "},".":{"ha":233,"x_min":49,"x_max":184,"o":"m 49 0 l 49 170 l 184 170 l 184 0 l 49 0 z "},"/":{"ha":472,"x_min":24,"x_max":449,"o":"m 115 -106 l 24 -64 l 357 1078 l 449 1036 l 115 -106 z "},":":{"ha":233,"x_min":49,"x_max":184,"o":"m 49 0 l 49 170 l 184 170 l 184 0 l 49 0 m 49 486 l 49 656 l 184 656 l 184 486 l 49 486 z "},";":{"ha":233,"x_min":49,"x_max":184,"o":"m 146 -171 l 87 -171 l 49 170 l 184 170 l 146 -171 m 49 486 l 49 656 l 184 656 l 184 486 l 49 486 z "},";":{"ha":233,"x_min":49,"x_max":184,"o":"m 146 -171 l 87 -171 l 49 170 l 184 170 l 146 -171 m 49 486 l 49 656 l 184 656 l 184 486 l 49 486 z "},"<":{"ha":465,"x_min":49,"x_max":416,"o":"m 374 111 l 49 376 l 49 473 l 374 739 l 416 657 l 131 425 l 416 193 l 374 111 z "},"=":{"ha":486,"x_min":49,"x_max":437,"o":"m 49 267 l 49 364 l 437 364 l 437 267 l 49 267 m 49 486 l 49 583 l 437 583 l 437 486 l 49 486 z "},">":{"ha":465,"x_min":49,"x_max":416,"o":"m 92 111 l 49 193 l 335 425 l 49 657 l 92 739 l 416 473 l 416 376 l 92 111 z "},"?":{"ha":525,"x_min":49,"x_max":476,"o":"m 97 0 l 97 170 l 233 170 l 233 0 l 97 0 m 476 729 q 419 558 476 629 q 356 504 391 522 q 282 486 322 486 l 205 486 l 195 292 l 136 292 l 118 607 l 282 607 q 301 612 292 607 q 316 626 309 617 q 327 645 323 634 q 330 668 330 656 q 327 691 330 680 q 316 711 323 703 q 301 724 309 720 q 282 729 292 729 l 49 729 l 49 972 l 282 972 q 419 900 362 972 q 476 729 476 829 z "},"@":{"ha":875,"x_min":49,"x_max":827,"o":"m 550 374 q 531 433 550 410 q 484 456 513 456 l 411 456 q 383 448 397 456 q 358 428 369 441 q 340 399 347 416 q 332 364 333 382 q 327 295 328 320 q 325 267 325 271 q 330 233 325 248 q 344 206 335 218 q 366 188 353 195 q 392 182 378 182 l 464 182 q 493 189 479 182 q 518 209 507 197 q 536 238 529 222 q 545 273 543 255 q 549 343 548 319 q 550 374 550 368 m 827 243 q 771 71 827 141 q 632 0 712 0 l 525 0 l 529 61 q 422 -1 523 -1 l 401 -1 q 388 0 394 0 q 379 0 382 0 q 285 47 322 0 q 255 102 264 73 q 245 167 245 131 l 245 182 l 265 456 q 317 585 271 531 q 424 637 363 637 l 497 637 q 549 626 526 637 q 591 590 573 614 q 631 472 631 545 q 631 466 631 471 q 629 456 631 462 l 604 85 l 661 85 q 700 94 682 85 q 730 120 718 104 q 751 159 743 136 q 758 207 758 181 l 758 765 q 750 812 758 790 q 729 851 743 835 q 699 878 716 868 q 661 888 681 888 l 214 888 q 176 878 193 888 q 145 851 158 868 q 124 812 132 835 q 117 765 117 790 l 117 -36 q 124 -83 117 -61 q 145 -122 132 -106 q 176 -149 158 -139 q 214 -158 193 -158 l 729 -158 l 729 -243 l 243 -243 q 104 -171 161 -243 q 62 -93 76 -135 q 49 0 49 -50 l 49 729 q 104 900 49 830 q 243 972 163 972 l 632 972 q 707 954 672 972 q 770 900 741 936 q 812 822 798 864 q 827 729 827 780 l 827 243 z "},"A":{"ha":583,"x_min":49,"x_max":534,"o":"m 437 607 q 430 655 437 633 q 410 694 422 677 q 379 720 397 710 q 340 729 361 729 l 243 729 q 205 720 222 729 q 174 693 187 710 q 153 654 161 677 q 146 607 146 632 l 146 364 l 437 364 l 437 607 m 437 0 l 437 243 l 146 243 l 146 0 l 49 0 l 49 729 q 106 900 49 829 q 243 972 163 972 l 340 972 q 479 901 420 972 q 534 729 534 832 l 534 0 l 437 0 z "},"B":{"ha":583,"x_min":49,"x_max":534,"o":"m 389 335 q 383 370 389 353 q 367 398 377 386 q 343 418 357 410 q 315 425 330 425 l 146 425 l 146 243 l 315 243 q 343 250 330 243 q 367 270 357 258 q 383 299 377 283 q 389 335 389 316 m 389 637 q 383 673 389 656 q 367 702 377 690 q 343 722 357 715 q 315 729 330 729 l 146 729 l 146 547 l 315 547 q 343 554 330 547 q 367 574 357 562 q 383 602 377 586 q 389 637 389 618 m 534 243 q 478 72 534 144 q 340 0 421 0 l 49 0 l 49 972 l 340 972 q 478 900 420 972 q 534 729 534 828 l 534 717 q 525 642 534 678 q 497 575 516 606 q 454 520 478 543 q 401 486 431 498 q 457 450 433 473 q 499 394 482 426 q 525 323 516 362 q 534 243 534 285 z "},"C":{"ha":583,"x_min":49,"x_max":534,"o":"m 243 0 q 106 72 161 0 q 49 243 49 143 l 49 729 q 106 900 49 829 q 243 972 163 972 l 534 972 l 534 729 l 243 729 q 205 720 222 729 q 174 693 187 710 q 153 654 161 677 q 146 607 146 632 l 146 364 q 153 317 146 339 q 174 278 161 295 q 205 252 187 262 q 243 243 222 243 l 534 243 l 534 0 l 243 0 z "},"D":{"ha":583,"x_min":49,"x_max":534,"o":"m 437 607 q 430 654 437 632 q 409 693 422 677 q 378 720 395 710 q 340 729 360 729 l 146 729 l 146 243 l 340 243 q 379 252 361 243 q 410 278 397 262 q 430 316 422 294 q 437 364 437 338 l 437 607 m 534 243 q 479 71 534 140 q 340 0 420 0 l 49 0 l 49 972 l 340 972 q 478 900 420 972 q 534 729 534 828 l 534 243 z "},"E":{"ha":486,"x_min":49,"x_max":437,"o":"m 243 0 q 104 71 163 0 q 62 149 76 106 q 49 243 49 192 l 49 972 l 437 972 l 437 729 l 146 729 l 146 547 l 340 547 l 340 425 l 146 425 l 146 364 q 153 316 146 338 q 174 278 161 294 q 204 252 186 262 q 243 243 222 243 l 437 243 l 437 0 l 243 0 z "},"F":{"ha":461,"x_min":49,"x_max":437,"o":"m 243 729 q 204 720 222 729 q 174 694 186 710 q 153 655 161 677 q 146 607 146 633 l 146 547 l 340 547 l 340 425 l 146 425 l 146 0 l 49 0 l 49 729 q 62 823 49 781 q 104 901 76 866 q 243 972 162 972 l 437 972 l 437 729 l 243 729 z "},"G":{"ha":583,"x_min":49,"x_max":534,"o":"m 243 729 q 205 720 222 729 q 174 693 187 710 q 153 654 161 677 q 146 607 146 632 l 146 364 q 153 317 146 339 q 174 278 161 295 q 205 252 187 262 q 243 243 222 243 l 428 243 l 428 425 l 292 425 l 292 547 l 525 547 l 525 0 l 243 0 q 106 72 161 0 q 49 243 49 143 l 49 729 q 106 900 49 829 q 243 972 163 972 l 534 972 l 534 729 l 243 729 z "},"H":{"ha":583,"x_min":49,"x_max":534,"o":"m 437 0 l 437 364 l 146 364 l 146 0 l 49 0 l 49 972 l 146 972 l 146 607 l 437 607 l 437 972 l 534 972 l 534 0 l 437 0 z "},"I":{"ha":292,"x_min":49,"x_max":243,"o":"m 49 0 l 49 243 l 97 243 l 97 729 l 49 729 l 49 972 l 243 972 l 243 729 l 195 729 l 195 243 l 243 243 l 243 0 l 49 0 z "},"J":{"ha":389,"x_min":49,"x_max":340,"o":"m 340 243 q 285 71 340 141 q 146 0 226 0 l 49 0 l 49 243 l 146 243 q 184 252 167 243 q 215 278 202 262 q 235 316 228 294 q 243 364 243 338 l 243 729 l 49 729 l 49 972 l 340 972 l 340 243 z "},"K":{"ha":583,"x_min":49,"x_max":534,"o":"m 437 0 l 437 243 q 430 291 437 269 q 410 330 422 313 q 379 355 397 346 q 340 364 361 364 l 146 364 l 146 0 l 49 0 l 49 972 l 146 972 l 146 607 l 340 607 q 379 616 361 607 q 410 642 397 626 q 430 681 422 659 q 437 729 437 703 l 437 972 l 534 972 l 534 704 q 527 636 534 669 q 506 575 519 604 q 472 524 492 547 q 427 486 452 501 q 472 448 452 471 q 506 397 492 425 q 527 335 519 368 q 534 267 534 302 l 534 0 l 437 0 z "},"L":{"ha":486,"x_min":49,"x_max":437,"o":"m 243 0 q 104 71 163 0 q 62 149 76 106 q 49 243 49 192 l 49 972 l 146 972 l 146 364 q 153 316 146 338 q 174 278 161 294 q 204 252 186 262 q 243 243 222 243 l 437 243 l 437 0 l 243 0 z "},"M":{"ha":972,"x_min":49,"x_max":924,"o":"m 827 0 l 827 607 q 819 654 827 632 q 798 693 811 677 q 767 720 785 710 q 729 729 749 729 l 632 729 q 593 720 611 729 q 563 694 576 710 q 542 655 549 677 q 534 607 534 633 l 534 0 l 437 0 l 437 607 q 430 655 437 633 q 410 694 422 677 q 379 720 397 710 q 340 729 361 729 l 243 729 q 205 720 222 729 q 174 693 187 710 q 153 654 161 677 q 146 607 146 632 l 146 0 l 49 0 l 49 729 q 106 900 49 829 q 243 972 163 972 l 301 972 q 362 961 333 972 q 416 928 391 949 q 458 876 440 906 q 486 807 476 845 q 514 876 496 845 q 556 928 532 906 q 610 961 581 949 q 671 972 639 972 l 729 972 q 867 900 810 972 q 909 822 895 864 q 924 729 924 780 l 924 0 l 827 0 z "},"N":{"ha":583,"x_min":49,"x_max":534,"o":"m 437 0 l 437 607 q 430 655 437 633 q 410 694 422 677 q 379 720 397 710 q 340 729 361 729 l 243 729 q 205 720 222 729 q 174 693 187 710 q 153 654 161 677 q 146 607 146 632 l 146 0 l 49 0 l 49 729 q 104 900 49 830 q 243 972 163 972 l 340 972 q 479 901 420 972 q 534 729 534 832 l 534 0 l 437 0 z "},"O":{"ha":583,"x_min":49,"x_max":534,"o":"m 437 607 q 430 654 437 632 q 409 693 422 677 q 378 720 395 710 q 340 729 360 729 l 243 729 q 205 720 222 729 q 174 693 187 710 q 153 654 161 677 q 146 607 146 632 l 146 364 q 153 317 146 339 q 174 278 161 295 q 205 252 187 262 q 243 243 222 243 l 340 243 q 379 252 361 243 q 410 278 397 262 q 430 316 422 294 q 437 364 437 338 l 437 607 m 534 243 q 479 71 534 140 q 340 0 420 0 l 243 0 q 104 71 163 0 q 62 150 76 106 q 49 243 49 193 l 49 729 q 104 900 49 830 q 243 972 163 972 l 340 972 q 478 900 420 972 q 534 729 534 828 l 534 243 z "},"P":{"ha":583,"x_min":49,"x_max":534,"o":"m 389 637 q 383 673 389 656 q 367 702 377 690 q 343 722 357 715 q 315 729 330 729 l 146 729 l 146 547 l 315 547 q 343 554 330 547 q 367 574 357 562 q 383 602 377 586 q 389 637 389 618 m 534 668 q 478 497 534 569 q 415 444 450 462 q 340 425 380 425 l 146 425 l 146 0 l 49 0 l 49 972 l 340 972 q 478 900 420 972 q 534 729 534 828 l 534 668 z "},"Q":{"ha":583,"x_min":49,"x_max":534,"o":"m 437 607 q 430 654 437 632 q 409 693 422 677 q 378 720 395 710 q 340 729 360 729 l 243 729 q 205 720 222 729 q 174 693 187 710 q 153 654 161 677 q 146 607 146 632 l 146 364 q 153 317 146 339 q 174 278 161 295 q 205 252 187 262 q 243 243 222 243 l 340 243 q 379 252 361 243 q 410 278 397 262 q 430 316 422 294 q 437 364 437 338 l 437 607 m 437 -366 q 298 -294 357 -366 q 243 -122 243 -224 l 243 0 q 106 71 162 0 q 49 243 49 142 l 49 729 q 106 900 49 829 q 243 972 163 972 l 340 972 q 478 900 420 972 q 534 729 534 828 l 534 243 q 479 71 534 140 q 340 0 420 0 q 348 -48 340 -26 q 368 -87 355 -71 q 399 -113 381 -103 q 437 -122 416 -122 l 534 -122 l 534 -366 l 437 -366 z "},"R":{"ha":583,"x_min":49,"x_max":534,"o":"m 389 637 q 383 673 389 656 q 367 702 377 690 q 343 722 357 715 q 315 729 330 729 l 146 729 l 146 547 l 315 547 q 343 554 330 547 q 367 574 357 562 q 383 602 377 586 q 389 637 389 618 m 437 0 l 437 256 q 406 374 437 323 q 315 425 370 425 l 146 425 l 146 0 l 49 0 l 49 972 l 340 972 q 478 900 420 972 q 534 729 534 828 q 525 649 534 687 q 499 578 516 610 q 457 523 482 547 q 401 486 433 499 q 500 400 465 460 q 534 256 534 339 l 534 0 l 437 0 z "},"S":{"ha":583,"x_min":49,"x_max":534,"o":"m 534 243 q 478 72 534 144 q 340 0 421 0 l 49 0 l 49 243 l 315 243 q 343 250 330 243 q 367 270 357 258 q 383 299 377 283 q 389 335 389 316 q 383 370 389 353 q 367 398 377 386 q 343 418 357 410 q 315 425 330 425 l 243 425 q 168 444 202 425 q 106 497 134 462 q 49 668 49 568 l 49 729 q 106 900 49 829 q 243 972 163 972 l 534 972 l 534 729 l 267 729 q 239 722 252 729 q 216 702 226 715 q 200 673 206 690 q 195 637 195 656 q 200 602 195 618 q 216 574 206 586 q 239 554 226 562 q 267 547 252 547 l 340 547 q 478 475 420 547 q 534 304 534 404 l 534 243 z "},"T":{"ha":534,"x_min":24,"x_max":510,"o":"m 315 729 l 315 0 l 218 0 l 218 729 l 24 729 l 24 972 l 510 972 l 510 729 l 315 729 z "},"U":{"ha":583,"x_min":49,"x_max":534,"o":"m 534 243 q 479 71 534 140 q 340 0 420 0 l 243 0 q 104 71 163 0 q 62 150 76 106 q 49 243 49 193 l 49 972 l 146 972 l 146 364 q 153 317 146 339 q 174 278 161 295 q 205 252 187 262 q 243 243 222 243 l 340 243 q 379 252 361 243 q 410 278 397 262 q 430 316 422 294 q 437 364 437 338 l 437 972 l 534 972 l 534 243 z "},"V":{"ha":583,"x_min":49,"x_max":534,"o":"m 534 243 q 479 71 534 140 q 340 0 420 0 l 49 0 l 49 972 l 146 972 l 146 243 l 340 243 q 379 252 361 243 q 410 278 397 262 q 430 316 422 294 q 437 364 437 338 l 437 972 l 534 972 l 534 243 z "},"W":{"ha":972,"x_min":49,"x_max":924,"o":"m 924 243 q 867 72 924 144 q 804 18 838 35 q 729 0 769 0 l 671 0 q 610 12 639 0 q 556 44 581 23 q 514 97 532 66 q 486 165 496 127 q 458 97 476 127 q 416 44 440 66 q 362 12 391 23 q 301 0 333 0 l 243 0 q 106 72 161 0 q 49 243 49 143 l 49 972 l 146 972 l 146 364 q 153 317 146 339 q 174 278 161 295 q 205 252 187 262 q 243 243 222 243 l 340 243 q 379 252 361 243 q 410 278 397 262 q 430 316 422 294 q 437 364 437 338 l 437 972 l 534 972 l 534 364 q 542 316 534 338 q 563 278 549 294 q 593 252 576 262 q 632 243 611 243 l 729 243 q 767 252 749 243 q 798 278 785 262 q 819 317 811 295 q 827 364 827 339 l 827 972 l 924 972 l 924 243 z "},"X":{"ha":583,"x_min":49,"x_max":534,"o":"m 476 0 q 363 46 413 0 q 292 168 311 93 q 264 100 282 130 q 221 46 247 70 q 107 0 170 0 l 49 0 l 49 243 l 146 243 q 183 252 165 243 q 214 278 201 262 q 235 317 227 295 q 243 364 243 339 l 243 607 q 235 654 243 632 q 214 693 227 677 q 183 720 201 710 q 146 729 165 729 l 49 729 l 49 972 l 107 972 q 221 925 171 972 q 292 804 273 879 q 363 925 311 880 q 476 972 412 972 l 534 972 l 534 729 l 437 729 q 399 720 417 729 q 369 693 382 710 q 348 654 355 677 q 340 607 340 632 l 340 364 q 348 317 340 339 q 369 278 355 295 q 399 252 382 262 q 437 243 417 243 l 534 243 l 534 0 l 476 0 z "},"Y":{"ha":583,"x_min":49,"x_max":534,"o":"m 534 534 q 479 363 534 432 q 340 292 420 292 l 340 0 l 243 0 l 243 292 q 106 363 161 292 q 63 441 77 398 q 49 534 49 484 l 49 972 l 146 972 l 146 656 q 153 609 146 631 q 174 570 161 587 q 205 544 187 553 q 243 534 222 534 l 340 534 q 379 544 361 534 q 410 570 397 553 q 430 608 422 586 q 437 656 437 630 l 437 972 l 534 972 l 534 534 z "},"Z":{"ha":583,"x_min":49,"x_max":534,"o":"m 49 0 l 49 243 l 389 729 l 49 729 l 49 972 l 534 972 l 534 729 l 195 243 l 534 243 l 534 0 l 49 0 z "},"[":{"ha":340,"x_min":49,"x_max":243,"o":"m 49 -122 l 49 1093 l 243 1093 l 243 850 l 146 850 l 146 121 l 243 121 l 243 -122 l 49 -122 z "},"\\":{"ha":472,"x_min":24,"x_max":449,"o":"m 357 -106 l 24 1036 l 115 1078 l 449 -64 l 357 -106 z "},"]":{"ha":340,"x_min":97,"x_max":292,"o":"m 97 -122 l 97 121 l 195 121 l 195 850 l 97 850 l 97 1093 l 292 1093 l 292 -122 l 97 -122 z "},"^":{"ha":492,"x_min":49,"x_max":443,"o":"m 372 489 l 245 842 l 119 489 l 49 529 l 207 972 l 285 972 l 443 529 l 372 489 z "},"_":{"ha":437,"x_min":0,"x_max":437,"o":"m 0 0 l 0 121 l 437 121 l 437 0 l 0 0 z "},"`":{"ha":233,"x_min":49,"x_max":184,"o":"m 126 802 l 49 972 l 126 972 l 184 802 l 126 802 z "},"a":{"ha":583,"x_min":49,"x_max":534,"o":"m 437 486 q 430 534 437 512 q 410 572 422 556 q 379 598 397 589 q 340 607 361 607 l 243 607 q 205 597 222 607 q 174 572 187 588 q 153 533 161 555 q 146 486 146 511 l 146 364 q 153 317 146 339 q 174 278 161 295 q 205 252 187 262 q 243 243 222 243 l 340 243 q 378 252 360 243 q 409 278 395 262 q 430 317 422 295 q 437 364 437 339 l 437 486 m 437 0 l 437 82 q 403 20 435 41 q 373 4 388 9 q 340 0 357 0 l 243 0 q 106 72 161 0 q 49 243 49 143 l 49 607 q 106 779 49 708 q 243 850 161 850 l 340 850 q 415 833 381 850 q 479 781 450 817 q 521 701 508 745 q 534 607 534 658 l 534 0 l 437 0 z "},"b":{"ha":583,"x_min":49,"x_max":534,"o":"m 437 486 q 430 533 437 511 q 409 572 422 555 q 378 597 395 588 q 340 607 360 607 l 243 607 q 205 597 222 607 q 174 572 187 588 q 153 533 161 555 q 146 486 146 511 l 146 364 q 153 316 146 338 q 174 278 161 294 q 204 252 186 262 q 243 243 222 243 l 340 243 q 378 252 360 243 q 409 278 395 262 q 430 317 422 295 q 437 364 437 339 l 437 486 m 534 243 q 478 72 534 144 q 340 0 421 0 l 243 0 q 104 71 163 0 q 62 149 76 106 q 49 243 49 192 l 49 1034 l 146 1034 l 146 770 q 155 804 147 788 q 180 831 163 819 q 210 845 194 841 q 243 850 227 850 l 340 850 q 415 832 380 850 q 478 779 450 815 q 534 607 534 707 l 534 243 z "},"c":{"ha":583,"x_min":49,"x_max":534,"o":"m 243 0 q 106 72 161 0 q 49 243 49 143 l 49 607 q 106 779 49 708 q 243 850 161 850 l 534 850 l 534 607 l 243 607 q 205 597 222 607 q 174 572 187 588 q 153 533 161 555 q 146 486 146 511 l 146 364 q 153 317 146 339 q 174 278 161 295 q 205 252 187 262 q 243 243 222 243 l 534 243 l 534 0 l 243 0 z "},"d":{"ha":583,"x_min":49,"x_max":534,"o":"m 437 486 q 430 533 437 511 q 409 572 422 555 q 378 597 395 588 q 340 607 360 607 l 243 607 q 205 597 222 607 q 174 572 187 588 q 153 533 161 555 q 146 486 146 511 l 146 364 q 153 317 146 339 q 174 278 161 295 q 205 252 187 262 q 243 243 222 243 l 340 243 q 379 252 361 243 q 410 278 397 262 q 430 316 422 294 q 437 364 437 338 l 437 486 m 534 243 q 479 71 534 140 q 340 0 420 0 l 243 0 q 106 72 161 0 q 49 243 49 143 l 49 607 q 106 779 49 708 q 243 850 161 850 l 340 850 q 373 845 357 850 q 403 831 388 841 q 428 804 420 819 q 437 770 436 788 l 437 1034 l 534 1034 l 534 243 z "},"e":{"ha":583,"x_min":49,"x_max":534,"o":"m 243 0 q 106 72 161 0 q 49 243 49 143 l 49 607 q 106 779 49 708 q 243 850 161 850 l 534 850 l 534 607 l 243 607 q 205 597 222 607 q 174 572 187 588 q 153 533 161 555 q 146 486 146 511 l 437 486 l 437 364 l 146 364 q 153 317 146 339 q 174 278 161 295 q 205 252 187 262 q 243 243 222 243 l 534 243 l 534 0 l 243 0 z "},"f":{"ha":461,"x_min":49,"x_max":437,"o":"m 243 790 q 204 781 222 790 q 174 755 186 771 q 153 716 161 739 q 146 668 146 694 l 146 547 l 340 547 l 340 425 l 146 425 l 146 0 l 49 0 l 49 790 q 62 884 49 842 q 104 962 76 927 q 243 1034 162 1034 l 437 1034 l 437 790 l 243 790 z "},"g":{"ha":583,"x_min":49,"x_max":534,"o":"m 437 486 q 430 533 437 511 q 409 572 422 555 q 378 597 395 588 q 340 607 360 607 l 243 607 q 205 597 222 607 q 174 572 187 588 q 153 533 161 555 q 146 486 146 511 l 146 364 q 153 317 146 339 q 174 278 161 295 q 205 252 187 262 q 243 243 222 243 l 340 243 q 379 252 361 243 q 410 278 397 262 q 430 316 422 294 q 437 364 437 338 l 437 486 m 534 -122 q 479 -294 534 -225 q 340 -366 420 -366 l 243 -366 l 243 -122 l 340 -122 q 379 -113 361 -122 q 410 -87 397 -103 q 430 -48 422 -71 q 437 0 437 -26 l 437 82 q 403 20 435 41 q 373 4 388 9 q 340 0 357 0 l 243 0 q 106 72 161 0 q 49 243 49 143 l 49 607 q 106 779 49 708 q 243 850 161 850 l 340 850 q 415 833 381 850 q 479 781 450 817 q 521 701 508 745 q 534 607 534 658 l 534 -122 z "},"h":{"ha":583,"x_min":49,"x_max":534,"o":"m 437 0 l 437 486 q 430 533 437 511 q 409 572 422 555 q 378 597 395 588 q 340 607 360 607 l 243 607 q 205 597 222 607 q 174 572 187 588 q 153 533 161 555 q 146 486 146 511 l 146 0 l 49 0 l 49 1034 l 146 1034 l 146 770 q 180 831 146 806 q 210 845 194 841 q 243 850 227 850 l 340 850 q 415 832 380 850 q 478 779 450 815 q 534 607 534 707 l 534 0 l 437 0 z "},"i":{"ha":195,"x_min":49,"x_max":146,"o":"m 49 0 l 49 850 l 146 850 l 146 0 l 49 0 z "},"j":{"ha":389,"x_min":49,"x_max":340,"o":"m 340 -122 q 285 -294 340 -224 q 146 -366 226 -366 l 49 -366 l 49 -122 l 146 -122 q 184 -113 167 -122 q 215 -87 202 -103 q 235 -48 228 -71 q 243 0 243 -26 l 243 607 l 49 607 l 49 850 l 340 850 l 340 -122 z "},"k":{"ha":583,"x_min":49,"x_max":534,"o":"m 437 0 l 437 182 q 430 231 437 208 q 410 269 422 253 q 379 295 397 286 q 340 304 361 304 l 146 304 l 146 0 l 49 0 l 49 1034 l 146 1034 l 146 547 l 340 547 q 379 556 361 547 q 410 582 397 566 q 430 620 422 598 q 437 668 437 642 l 437 850 l 534 850 l 534 644 q 527 576 534 609 q 506 514 519 543 q 472 463 492 486 q 427 425 452 440 q 472 387 452 410 q 506 336 492 364 q 527 274 519 307 q 534 207 534 241 l 534 0 l 437 0 z "},"l":{"ha":267,"x_min":49,"x_max":243,"o":"m 243 0 q 104 71 163 0 q 62 149 76 106 q 49 243 49 192 l 49 1034 l 146 1034 l 146 364 q 153 316 146 338 q 174 278 161 294 q 204 252 186 262 q 243 243 222 243 l 243 0 z "},"m":{"ha":972,"x_min":49,"x_max":924,"o":"m 827 0 l 827 486 q 819 533 827 511 q 798 572 811 555 q 767 597 785 588 q 729 607 749 607 l 632 607 q 593 598 611 607 q 563 572 576 589 q 542 534 549 556 q 534 486 534 512 l 534 0 l 437 0 l 437 486 q 430 534 437 512 q 410 572 422 556 q 379 598 397 589 q 340 607 361 607 l 243 607 q 205 597 222 607 q 174 572 187 588 q 153 533 161 555 q 146 486 146 511 l 146 0 l 49 0 l 49 607 q 106 779 49 708 q 243 850 161 850 l 301 850 q 362 838 333 850 q 416 805 391 827 q 458 753 440 784 q 486 685 476 723 q 514 753 496 723 q 556 805 532 784 q 610 838 581 827 q 671 850 639 850 l 729 850 q 804 832 769 850 q 867 779 838 815 q 909 701 895 743 q 924 607 924 658 l 924 0 l 827 0 z "},"n":{"ha":583,"x_min":49,"x_max":534,"o":"m 437 0 l 437 486 q 430 534 437 512 q 410 572 422 556 q 379 598 397 589 q 340 607 361 607 l 243 607 q 205 597 222 607 q 174 572 187 588 q 153 533 161 555 q 146 486 146 511 l 146 0 l 49 0 l 49 607 q 104 779 49 709 q 243 850 162 850 l 340 850 q 415 833 381 850 q 479 781 450 817 q 521 701 508 745 q 534 607 534 658 l 534 0 l 437 0 z "},"o":{"ha":583,"x_min":49,"x_max":534,"o":"m 437 486 q 430 533 437 511 q 409 572 422 555 q 378 597 395 588 q 340 607 360 607 l 243 607 q 205 597 222 607 q 174 572 187 588 q 153 533 161 555 q 146 486 146 511 l 146 364 q 153 317 146 339 q 174 278 161 295 q 205 252 187 262 q 243 243 222 243 l 340 243 q 379 252 361 243 q 410 278 397 262 q 430 316 422 294 q 437 364 437 338 l 437 486 m 534 243 q 479 71 534 140 q 340 0 420 0 l 243 0 q 104 71 163 0 q 62 150 76 106 q 49 243 49 193 l 49 607 q 104 779 49 709 q 243 850 162 850 l 340 850 q 415 832 380 850 q 478 779 450 815 q 534 607 534 707 l 534 243 z "},"p":{"ha":583,"x_min":49,"x_max":534,"o":"m 437 486 q 430 533 437 511 q 409 572 422 555 q 378 597 395 588 q 340 607 360 607 l 243 607 q 204 598 222 607 q 174 572 186 589 q 153 534 161 556 q 146 486 146 512 l 146 364 q 153 317 146 339 q 174 278 161 295 q 205 252 187 262 q 243 243 222 243 l 340 243 q 378 252 360 243 q 409 278 395 262 q 430 317 422 295 q 437 364 437 339 l 437 486 m 534 243 q 478 72 534 144 q 340 0 421 0 l 243 0 q 210 4 227 0 q 180 20 194 9 q 146 82 148 41 l 146 -243 l 49 -243 l 49 607 q 62 701 49 658 q 104 781 76 745 q 168 833 134 817 q 243 850 202 850 l 340 850 q 415 832 380 850 q 478 779 450 815 q 534 607 534 707 l 534 243 z "},"q":{"ha":583,"x_min":49,"x_max":534,"o":"m 437 486 q 430 534 437 512 q 410 572 422 556 q 379 598 397 589 q 340 607 361 607 l 243 607 q 205 597 222 607 q 174 572 187 588 q 153 533 161 555 q 146 486 146 511 l 146 364 q 153 317 146 339 q 174 278 161 295 q 205 252 187 262 q 243 243 222 243 l 340 243 q 378 252 360 243 q 409 278 395 262 q 430 317 422 295 q 437 364 437 339 l 437 486 m 437 -243 l 437 82 q 403 20 435 41 q 373 4 388 9 q 340 0 357 0 l 243 0 q 106 72 161 0 q 49 243 49 143 l 49 607 q 106 779 49 708 q 243 850 161 850 l 340 850 q 415 833 381 850 q 479 781 450 817 q 521 701 508 745 q 534 607 534 658 l 534 -243 l 437 -243 z "},"r":{"ha":461,"x_min":49,"x_max":437,"o":"m 243 607 q 205 597 222 607 q 174 572 187 588 q 153 533 161 555 q 146 486 146 511 l 146 0 l 49 0 l 49 850 l 146 850 l 146 770 q 155 804 147 788 q 180 831 163 819 q 210 845 194 841 q 243 850 227 850 l 437 850 l 437 607 l 243 607 z "},"s":{"ha":583,"x_min":49,"x_max":534,"o":"m 534 243 q 478 72 534 144 q 340 0 421 0 l 49 0 l 49 243 l 340 243 q 374 260 360 243 q 389 304 389 278 q 385 328 389 317 q 374 347 381 338 q 359 359 368 355 q 340 364 351 364 l 243 364 q 106 436 162 364 q 49 607 49 507 q 106 779 49 708 q 243 850 161 850 l 534 850 l 534 607 l 243 607 q 209 590 223 607 q 195 547 195 572 q 198 524 195 535 q 209 504 202 513 q 224 491 216 496 q 243 486 233 486 l 340 486 q 478 414 420 486 q 534 243 534 343 z "},"t":{"ha":461,"x_min":49,"x_max":437,"o":"m 243 0 q 104 71 163 0 q 62 149 76 106 q 49 243 49 192 l 49 972 l 146 972 l 146 850 l 340 850 l 340 729 l 146 729 l 146 364 q 153 316 146 338 q 174 278 161 294 q 204 252 186 262 q 243 243 222 243 l 437 243 l 437 0 l 243 0 z "},"u":{"ha":583,"x_min":49,"x_max":534,"o":"m 534 243 q 479 71 534 140 q 340 0 420 0 l 243 0 q 104 71 163 0 q 62 150 76 106 q 49 243 49 193 l 49 850 l 146 850 l 146 364 q 153 317 146 339 q 174 278 161 295 q 205 252 187 262 q 243 243 222 243 l 340 243 q 379 252 361 243 q 410 278 397 262 q 430 316 422 294 q 437 364 437 338 l 437 850 l 534 850 l 534 243 z "},"v":{"ha":583,"x_min":49,"x_max":534,"o":"m 534 243 q 479 71 534 140 q 340 0 420 0 l 49 0 l 49 850 l 146 850 l 146 243 l 340 243 q 379 252 361 243 q 410 278 397 262 q 430 316 422 294 q 437 364 437 338 l 437 850 l 534 850 l 534 243 z "},"w":{"ha":972,"x_min":49,"x_max":924,"o":"m 924 243 q 867 72 924 144 q 804 18 838 35 q 729 0 769 0 l 671 0 q 610 12 639 0 q 556 44 581 23 q 514 97 532 66 q 486 165 496 127 q 458 97 476 127 q 416 44 440 66 q 362 12 391 23 q 301 0 333 0 l 243 0 q 106 72 161 0 q 49 243 49 143 l 49 850 l 146 850 l 146 364 q 153 317 146 339 q 174 278 161 295 q 205 252 187 262 q 243 243 222 243 l 340 243 q 379 252 361 243 q 410 278 397 262 q 430 316 422 294 q 437 364 437 338 l 437 850 l 534 850 l 534 364 q 542 316 534 338 q 563 278 549 294 q 593 252 576 262 q 632 243 611 243 l 729 243 q 767 252 749 243 q 798 278 785 262 q 819 317 811 295 q 827 364 827 339 l 827 850 l 924 850 l 924 243 z "},"x":{"ha":583,"x_min":49,"x_max":534,"o":"m 476 0 q 363 46 413 0 q 292 168 311 93 q 264 100 282 130 q 221 46 247 70 q 107 0 170 0 l 49 0 l 49 243 l 146 243 q 183 252 165 243 q 214 278 201 262 q 235 317 227 295 q 243 364 243 339 l 243 486 q 235 533 243 511 q 214 572 227 555 q 183 597 201 588 q 146 607 165 607 l 49 607 l 49 850 l 107 850 q 167 838 138 850 q 221 803 195 827 q 292 684 273 757 q 363 803 311 758 q 416 838 388 827 q 476 850 445 850 l 534 850 l 534 607 l 437 607 q 399 597 417 607 q 369 572 382 588 q 348 533 355 555 q 340 486 340 511 l 340 364 q 348 317 340 339 q 369 278 355 295 q 399 252 382 262 q 437 243 417 243 l 534 243 l 534 0 l 476 0 z "},"y":{"ha":583,"x_min":49,"x_max":534,"o":"m 534 -122 q 479 -294 534 -225 q 340 -366 420 -366 l 243 -366 l 243 -122 l 340 -122 q 379 -113 361 -122 q 410 -87 397 -103 q 430 -48 422 -71 q 437 0 437 -26 l 437 82 q 403 20 435 41 q 373 4 388 9 q 340 0 357 0 l 243 0 q 106 72 161 0 q 49 243 49 143 l 49 850 l 146 850 l 146 364 q 153 317 146 339 q 174 278 161 295 q 205 252 187 262 q 243 243 222 243 l 340 243 q 379 252 361 243 q 410 278 397 262 q 430 316 422 294 q 437 364 437 338 l 437 850 l 534 850 l 534 -122 z "},"z":{"ha":583,"x_min":49,"x_max":534,"o":"m 49 0 l 49 243 l 359 607 l 49 607 l 49 850 l 534 850 l 534 607 l 224 243 l 534 243 l 534 0 l 49 0 z "},"{":{"ha":437,"x_min":49,"x_max":340,"o":"m 340 -122 q 266 -104 300 -122 q 203 -50 231 -85 q 146 121 146 22 l 146 425 l 49 425 l 49 547 l 146 547 l 146 850 q 203 1022 146 951 q 340 1093 258 1093 l 340 850 q 302 840 320 850 q 271 814 284 831 q 250 776 258 798 q 243 729 243 754 l 243 243 q 250 196 243 218 q 271 157 258 174 q 302 131 284 140 q 340 121 320 121 l 340 -122 z "},"|":{"ha":195,"x_min":49,"x_max":146,"o":"m 49 -122 l 49 1093 l 146 1093 l 146 -122 l 49 -122 z "},"}":{"ha":437,"x_min":97,"x_max":389,"o":"m 292 425 l 292 121 q 235 -50 292 22 q 172 -104 206 -85 q 97 -122 137 -122 l 97 121 q 135 131 117 121 q 166 157 153 140 q 187 196 179 174 q 195 243 195 218 l 195 729 q 187 776 195 754 q 166 814 179 798 q 135 840 153 831 q 97 850 117 850 l 97 1093 q 172 1076 137 1093 q 235 1022 206 1058 q 292 850 292 951 l 292 547 l 389 547 l 389 425 l 292 425 z "},"~":{"ha":505,"x_min":49,"x_max":457,"o":"m 457 425 q 392 389 425 401 q 321 376 359 376 q 253 401 296 376 q 214 419 231 413 q 184 425 197 425 q 49 376 110 425 l 49 473 q 114 511 80 499 q 184 522 147 522 q 253 498 209 522 q 321 473 298 473 q 392 486 359 473 q 457 522 425 498 l 457 425 z "},"€":{"ha":583,"x_min":49,"x_max":534,"o":"m 243 0 q 106 72 161 0 q 49 243 49 143 l 49 729 q 106 900 49 829 q 243 972 163 972 l 534 972 l 534 729 l 243 729 q 205 720 222 729 q 174 693 187 710 q 153 654 161 677 q 146 607 146 632 l 437 607 l 437 522 l 146 522 l 146 450 l 437 450 l 437 364 l 146 364 q 153 317 146 339 q 174 278 161 295 q 205 252 187 262 q 243 243 222 243 l 534 243 l 534 0 l 243 0 z "},"‚":{"ha":233,"x_min":49,"x_max":184,"o":"m 87 -122 l 87 -74 l 146 -74 l 146 0 l 49 0 l 49 170 l 184 170 l 184 -122 l 87 -122 z "},"ƒ":{"ha":558,"x_min":-146,"x_max":534,"o":"m 518 790 l 323 790 q 284 781 302 790 q 253 756 267 772 q 230 718 239 740 q 218 668 221 695 q 215 635 217 665 q 208 547 212 605 l 403 547 l 396 425 l 201 425 l 171 0 q 168 -50 170 -20 q 163 -122 166 -80 q 140 -217 157 -174 q 93 -296 123 -260 q -49 -366 35 -366 l -146 -366 l -129 -122 l -32 -122 q 7 -113 -11 -122 q 40 -87 26 -103 q 63 -48 54 -71 q 74 0 72 -26 l 129 790 q 197 962 136 892 q 264 1016 228 998 q 340 1034 300 1034 l 534 1034 l 518 790 z "},"„":{"ha":447,"x_min":49,"x_max":399,"o":"m 87 -122 l 87 -74 l 146 -74 l 146 0 l 49 0 l 49 170 l 184 170 l 184 -122 l 87 -122 m 301 -122 l 301 -74 l 359 -74 l 359 0 l 262 0 l 262 170 l 399 170 l 399 -122 l 301 -122 z "},"…":{"ha":700,"x_min":49,"x_max":652,"o":"m 49 0 l 49 170 l 184 170 l 184 0 l 49 0 m 282 0 l 282 170 l 418 170 l 418 0 l 282 0 m 515 0 l 515 170 l 652 170 l 652 0 l 515 0 z "},"†":{"ha":486,"x_min":49,"x_max":437,"o":"m 292 607 l 292 -243 l 195 -243 l 195 607 l 49 607 l 49 729 l 195 729 l 195 972 l 292 972 l 292 729 l 437 729 l 437 607 l 292 607 z "},"‡":{"ha":486,"x_min":49,"x_max":437,"o":"m 292 243 l 292 -243 l 195 -243 l 195 243 l 49 243 l 49 364 l 195 364 l 195 607 l 49 607 l 49 729 l 195 729 l 195 972 l 292 972 l 292 729 l 437 729 l 437 607 l 292 607 l 292 364 l 437 364 l 437 243 l 292 243 z "},"ˆ":{"ha":330,"x_min":49,"x_max":282,"o":"m 224 802 l 165 904 l 107 802 l 49 802 l 126 972 l 204 972 l 282 802 l 224 802 z "},"‰":{"ha":1332,"x_min":49,"x_max":1283,"o":"m 340 699 q 335 734 340 718 q 319 763 329 751 q 295 783 309 776 q 267 790 281 790 l 195 790 q 166 783 179 790 q 142 763 153 776 q 126 734 132 751 q 121 699 121 718 l 121 607 q 126 572 121 589 q 142 544 132 556 q 166 524 153 531 q 195 517 179 517 l 267 517 q 296 524 282 517 q 319 543 309 530 q 335 571 329 555 q 340 607 340 587 l 340 699 m 918 364 q 912 399 918 382 q 897 428 907 416 q 874 448 888 441 q 846 456 861 456 l 772 456 q 744 448 758 456 q 721 428 731 441 q 706 399 711 416 q 700 364 700 382 l 700 273 q 706 238 700 255 q 721 209 711 222 q 744 189 731 197 q 772 182 758 182 l 846 182 q 874 189 861 182 q 898 208 888 196 q 913 237 907 220 q 918 273 918 254 l 918 364 m 1210 364 q 1204 399 1210 382 q 1189 428 1198 416 q 1166 448 1179 441 q 1137 456 1152 456 l 1064 456 q 1036 448 1049 456 q 1013 428 1023 441 q 997 399 1003 416 q 991 364 991 382 l 991 273 q 997 237 991 254 q 1013 208 1003 220 q 1035 189 1022 196 q 1064 182 1048 182 l 1137 182 q 1166 189 1152 182 q 1189 209 1179 197 q 1204 238 1198 222 q 1210 273 1210 255 l 1210 364 m 412 517 q 371 386 412 440 q 267 335 330 335 l 195 335 q 92 387 134 335 q 59 446 70 414 q 49 517 49 479 l 49 790 q 59 860 49 828 q 92 918 70 892 q 195 972 134 972 l 267 972 q 371 918 329 972 q 412 790 412 867 l 412 517 m 471 0 l 471 972 l 568 972 l 568 0 l 471 0 m 1283 182 q 1240 53 1283 108 q 1137 0 1198 0 l 1103 0 q 1055 9 1078 0 q 1013 35 1032 18 q 978 76 993 52 q 956 127 964 99 q 933 76 948 99 q 898 35 918 52 q 855 9 878 18 q 807 0 831 0 l 772 0 q 669 53 712 0 q 627 182 627 108 l 627 456 q 669 585 627 530 q 772 637 712 637 l 807 637 q 855 628 831 637 q 898 602 878 619 q 933 562 918 585 q 956 510 948 538 q 978 562 964 538 q 1013 602 993 585 q 1055 628 1032 619 q 1103 637 1078 637 l 1137 637 q 1240 585 1198 637 q 1283 456 1283 530 l 1283 182 z "},"Š":{"ha":583,"x_min":49,"x_max":534,"o":"m 534 243 q 478 72 534 144 q 340 0 421 0 l 49 0 l 49 243 l 315 243 q 343 250 330 243 q 367 270 357 258 q 383 299 377 283 q 389 335 389 316 q 383 370 389 353 q 367 398 377 386 q 343 418 357 410 q 315 425 330 425 l 243 425 q 168 444 202 425 q 106 497 134 462 q 49 668 49 568 l 49 729 q 106 900 49 829 q 243 972 163 972 l 534 972 l 534 729 l 267 729 q 239 722 252 729 q 216 702 226 715 q 200 673 206 690 q 195 637 195 656 q 200 602 195 618 q 216 574 206 586 q 239 554 226 562 q 267 547 252 547 l 340 547 q 478 475 420 547 q 534 304 534 404 l 534 243 m 330 1044 l 253 1044 l 175 1215 l 233 1215 l 292 1112 l 350 1215 l 408 1215 l 330 1044 z "},"‹":{"ha":383,"x_min":49,"x_max":335,"o":"m 293 239 l 49 437 l 49 534 l 293 733 l 335 652 l 131 486 l 335 321 l 293 239 z "},"Œ":{"ha":827,"x_min":49,"x_max":778,"o":"m 437 607 q 430 654 437 632 q 409 693 422 677 q 378 720 395 710 q 340 729 360 729 l 243 729 q 205 720 222 729 q 174 693 187 710 q 153 654 161 677 q 146 607 146 632 l 146 364 q 153 317 146 339 q 174 278 161 295 q 205 252 187 262 q 243 243 222 243 l 340 243 q 379 252 361 243 q 410 278 397 262 q 430 316 422 294 q 437 364 437 338 l 437 607 m 671 0 q 610 12 638 0 q 558 47 581 24 q 517 102 534 70 q 489 174 499 134 q 461 102 479 134 q 419 47 444 70 q 365 12 395 24 q 301 0 334 0 l 243 0 q 104 71 163 0 q 62 150 76 106 q 49 243 49 193 l 49 729 q 104 900 49 830 q 243 972 163 972 l 301 972 q 437 903 381 972 l 437 972 l 778 972 l 778 729 l 534 729 l 534 547 l 681 547 l 681 425 l 534 425 l 534 364 q 542 316 534 338 q 563 278 549 294 q 593 252 576 262 q 632 243 611 243 l 778 243 l 778 0 l 671 0 z "},"Ž":{"ha":583,"x_min":49,"x_max":534,"o":"m 49 0 l 49 243 l 389 729 l 49 729 l 49 972 l 534 972 l 534 729 l 195 243 l 534 243 l 534 0 l 49 0 m 330 1044 l 253 1044 l 175 1215 l 233 1215 l 292 1112 l 350 1215 l 408 1215 l 330 1044 z "},"‘":{"ha":233,"x_min":49,"x_max":184,"o":"m 49 742 l 49 1034 l 146 1034 l 146 985 l 87 985 l 87 911 l 184 911 l 184 742 l 49 742 z "},"’":{"ha":233,"x_min":49,"x_max":184,"o":"m 87 742 l 87 790 l 146 790 l 146 863 l 49 863 l 49 1034 l 184 1034 l 184 742 l 87 742 z "},"“":{"ha":447,"x_min":49,"x_max":399,"o":"m 49 742 l 49 1034 l 146 1034 l 146 985 l 87 985 l 87 911 l 184 911 l 184 742 l 49 742 m 262 742 l 262 1034 l 359 1034 l 359 985 l 301 985 l 301 911 l 399 911 l 399 742 l 262 742 z "},"”":{"ha":447,"x_min":49,"x_max":399,"o":"m 87 742 l 87 790 l 146 790 l 146 863 l 49 863 l 49 1034 l 184 1034 l 184 742 l 87 742 m 301 742 l 301 790 l 359 790 l 359 863 l 262 863 l 262 1034 l 399 1034 l 399 742 l 301 742 z "},"•":{"ha":437,"x_min":72,"x_max":364,"o":"m 364 340 q 357 292 364 314 q 337 253 350 269 q 306 228 323 237 q 267 218 288 218 l 170 218 q 132 228 150 218 q 101 254 114 237 q 80 293 87 271 q 72 340 72 315 l 72 510 q 80 557 72 535 q 101 596 87 580 q 132 623 114 613 q 170 632 150 632 l 267 632 q 304 623 287 632 q 335 596 322 613 q 356 557 349 580 q 364 510 364 535 l 364 340 z "},"–":{"ha":389,"x_min":49,"x_max":340,"o":"m 49 376 l 49 473 l 340 473 l 340 376 l 49 376 z "},"—":{"ha":583,"x_min":49,"x_max":534,"o":"m 49 376 l 49 473 l 534 473 l 534 376 l 49 376 z "},"˜":{"ha":389,"x_min":49,"x_max":340,"o":"m 340 875 q 296 838 321 850 q 243 827 271 827 q 195 850 224 827 q 146 875 165 875 q 93 863 117 875 q 49 827 68 852 l 49 924 q 93 961 68 949 q 146 972 117 972 q 195 947 164 972 q 243 924 224 924 q 296 935 271 924 q 340 972 321 947 l 340 875 z "},"™":{"ha":1089,"x_min":49,"x_max":1040,"o":"m 966 364 l 966 699 q 961 734 966 718 q 945 763 955 751 q 923 783 936 776 q 895 790 909 790 l 821 790 q 792 783 806 790 q 770 764 779 777 q 754 735 760 752 q 749 699 749 718 l 749 364 l 675 364 l 675 699 q 669 735 675 718 q 654 764 664 752 q 632 783 645 777 q 603 790 618 790 l 529 790 q 502 783 515 790 q 478 763 488 776 q 463 734 469 751 q 457 699 457 718 l 457 364 l 383 364 l 383 790 l 267 790 l 267 364 l 195 364 l 195 790 l 49 790 l 49 972 l 412 972 l 412 899 q 529 972 456 972 l 574 972 q 619 963 597 972 q 659 938 641 954 q 691 899 677 922 q 713 848 705 876 q 733 899 720 876 q 765 938 747 922 q 805 963 783 954 q 850 972 826 972 l 895 972 q 997 918 956 972 q 1029 860 1018 892 q 1040 790 1040 828 l 1040 364 l 966 364 z "},"š":{"ha":583,"x_min":49,"x_max":534,"o":"m 534 243 q 478 72 534 144 q 340 0 421 0 l 49 0 l 49 243 l 340 243 q 374 260 360 243 q 389 304 389 278 q 385 328 389 317 q 374 347 381 338 q 359 359 368 355 q 340 364 351 364 l 243 364 q 106 436 162 364 q 49 607 49 507 q 106 779 49 708 q 243 850 161 850 l 534 850 l 534 607 l 243 607 q 209 590 223 607 q 195 547 195 572 q 198 524 195 535 q 209 504 202 513 q 224 491 216 496 q 243 486 233 486 l 340 486 q 478 414 420 486 q 534 243 534 343 m 330 924 l 253 924 l 175 1093 l 233 1093 l 292 991 l 350 1093 l 408 1093 l 330 924 z "},"›":{"ha":383,"x_min":49,"x_max":335,"o":"m 92 239 l 49 321 l 253 486 l 49 652 l 92 733 l 335 534 l 335 437 l 92 239 z "},"œ":{"ha":875,"x_min":49,"x_max":827,"o":"m 437 486 q 430 533 437 511 q 409 572 422 555 q 378 597 395 588 q 340 607 360 607 l 243 607 q 205 597 222 607 q 174 572 187 588 q 153 533 161 555 q 146 486 146 511 l 146 364 q 153 317 146 339 q 174 278 161 295 q 205 252 187 262 q 243 243 222 243 l 340 243 q 379 252 361 243 q 410 278 397 262 q 430 316 422 294 q 437 364 437 338 l 437 486 m 671 0 q 557 46 607 0 q 486 167 505 92 q 458 98 476 129 q 416 45 440 67 q 362 12 391 24 q 301 0 333 0 l 243 0 q 104 71 163 0 q 62 150 76 106 q 49 243 49 193 l 49 607 q 104 779 49 709 q 243 850 162 850 l 301 850 q 361 838 333 850 q 415 803 390 827 q 486 684 467 758 q 557 803 505 757 q 611 838 582 827 q 671 850 640 850 l 827 850 l 827 607 l 632 607 q 594 597 612 607 q 563 572 576 588 q 542 533 549 555 q 534 486 534 511 l 729 486 l 729 364 l 534 364 q 542 317 534 339 q 563 278 549 295 q 594 252 576 262 q 632 243 612 243 l 827 243 l 827 0 l 671 0 z "},"ž":{"ha":583,"x_min":49,"x_max":534,"o":"m 49 0 l 49 243 l 359 607 l 49 607 l 49 850 l 534 850 l 534 607 l 224 243 l 534 243 l 534 0 l 49 0 m 330 924 l 253 924 l 175 1093 l 233 1093 l 292 991 l 350 1093 l 408 1093 l 330 924 z "},"Ÿ":{"ha":583,"x_min":49,"x_max":534,"o":"m 534 534 q 479 363 534 432 q 340 292 420 292 l 340 0 l 243 0 l 243 292 q 106 363 161 292 q 63 441 77 398 q 49 534 49 484 l 49 972 l 146 972 l 146 656 q 153 609 146 631 q 174 570 161 587 q 205 544 187 553 q 243 534 222 534 l 340 534 q 379 544 361 534 q 410 570 397 553 q 430 608 422 586 q 437 656 437 630 l 437 972 l 534 972 l 534 534 m 146 1044 l 146 1166 l 243 1166 l 243 1044 l 146 1044 m 340 1044 l 340 1166 l 437 1166 l 437 1044 l 340 1044 z "},"¡":{"ha":233,"x_min":49,"x_max":184,"o":"m 49 -122 l 87 558 l 146 558 l 184 -122 l 49 -122 m 49 681 l 49 850 l 184 850 l 184 681 l 49 681 z "},"¢":{"ha":583,"x_min":49,"x_max":534,"o":"m 389 121 l 389 0 l 292 0 l 292 121 l 243 121 q 106 193 163 121 q 49 364 49 263 l 49 729 q 106 900 49 829 q 243 972 163 972 l 292 972 l 292 1093 l 389 1093 l 389 972 l 534 972 l 534 729 l 243 729 q 205 720 222 729 q 174 693 187 710 q 153 654 161 677 q 146 607 146 632 l 146 486 q 153 439 146 461 q 174 400 161 416 q 205 374 187 383 q 243 364 222 364 l 534 364 l 534 121 l 389 121 z "},"£":{"ha":583,"x_min":49,"x_max":534,"o":"m 49 0 l 49 790 q 62 884 49 842 q 104 962 76 927 q 243 1034 162 1034 l 437 1034 l 437 790 l 243 790 q 204 781 222 790 q 174 755 186 771 q 153 716 161 739 q 146 668 146 694 l 146 547 l 340 547 l 340 425 l 146 425 l 146 243 l 534 243 l 534 0 l 49 0 z "},"¤":{"ha":583,"x_min":49,"x_max":534,"o":"m 243 0 q 106 72 161 0 q 49 243 49 143 l 49 729 q 106 900 49 829 q 243 972 163 972 l 534 972 l 534 729 l 243 729 q 205 720 222 729 q 174 693 187 710 q 153 654 161 677 q 146 607 146 632 l 437 607 l 437 522 l 146 522 l 146 450 l 437 450 l 437 364 l 146 364 q 153 317 146 339 q 174 278 161 295 q 205 252 187 262 q 243 243 222 243 l 534 243 l 534 0 l 243 0 z "},"¥":{"ha":583,"x_min":49,"x_max":534,"o":"m 340 121 l 340 0 l 243 0 l 243 121 l 49 121 l 49 243 l 243 243 l 243 364 l 49 364 l 49 486 l 243 486 q 106 557 162 486 q 49 729 49 628 l 49 972 l 146 972 l 146 778 q 153 731 146 753 q 174 692 161 709 q 205 666 187 675 q 243 656 222 656 l 340 656 q 379 665 361 656 q 410 690 397 674 q 430 729 422 707 q 437 778 437 751 l 437 972 l 534 972 l 534 729 q 479 557 534 627 q 340 486 420 486 l 534 486 l 534 364 l 340 364 l 340 243 l 534 243 l 534 121 l 340 121 z "},"¦":{"ha":195,"x_min":49,"x_max":146,"o":"m 49 -122 l 49 401 l 146 401 l 146 -122 l 49 -122 m 49 571 l 49 1093 l 146 1093 l 146 571 l 49 571 z "},"§":{"ha":583,"x_min":49,"x_max":534,"o":"m 389 364 q 381 412 389 389 q 360 451 373 434 q 329 477 347 467 q 292 486 311 486 q 254 477 271 486 q 223 451 236 467 q 202 412 210 434 q 195 364 195 389 q 202 317 195 339 q 223 278 210 295 q 254 252 236 262 q 292 243 271 243 q 329 252 311 243 q 360 278 347 262 q 381 317 373 295 q 389 364 389 339 m 534 0 q 478 -171 534 -99 q 415 -225 450 -208 q 340 -243 380 -243 l 49 -243 l 49 0 l 340 0 q 359 5 351 0 q 374 18 368 9 q 385 38 381 26 q 389 61 389 49 q 385 84 389 73 q 374 103 381 95 q 359 116 368 111 q 340 121 351 121 l 243 121 q 106 193 163 121 q 49 364 49 263 q 114 547 49 474 q 49 729 49 621 q 106 900 49 829 q 243 972 163 972 l 534 972 l 534 729 l 243 729 q 224 724 233 729 q 209 711 216 720 q 198 691 202 703 q 195 668 195 680 q 198 645 195 656 q 209 626 202 634 q 224 612 216 617 q 243 607 233 607 l 340 607 q 478 536 421 607 q 534 364 534 465 q 469 182 534 255 q 534 0 534 109 z "},"¨":{"ha":389,"x_min":49,"x_max":340,"o":"m 49 850 l 49 972 l 146 972 l 146 850 l 49 850 m 243 850 l 243 972 l 340 972 l 340 850 l 243 850 z "},"©":{"ha":681,"x_min":49,"x_max":632,"o":"m 296 146 q 258 155 276 146 q 228 181 241 165 q 207 219 214 197 q 199 267 199 241 l 199 510 q 207 557 199 535 q 228 596 214 580 q 258 623 241 613 q 296 632 276 632 l 441 632 l 441 510 l 296 510 q 277 505 286 510 q 262 492 269 500 q 251 473 255 484 q 248 450 248 463 l 248 328 q 251 304 248 315 q 262 285 255 294 q 277 272 269 277 q 296 267 286 267 l 441 267 l 441 146 l 296 146 m 574 583 q 566 630 574 608 q 545 669 558 652 q 514 694 532 685 q 476 704 496 704 l 204 704 q 166 694 184 704 q 135 669 149 685 q 115 630 122 652 q 107 583 107 608 l 107 195 q 115 147 107 170 q 135 108 122 125 q 166 82 149 92 q 204 72 184 72 l 476 72 q 515 81 497 72 q 546 107 532 91 q 566 146 559 123 q 574 195 574 168 l 574 583 m 632 243 q 576 71 632 141 q 437 0 518 0 l 243 0 q 104 71 163 0 q 62 150 76 106 q 49 243 49 193 l 49 534 q 62 628 49 585 q 104 705 76 670 q 243 778 163 778 l 437 778 q 575 705 518 778 q 632 534 632 634 l 632 243 z "},"ª":{"ha":461,"x_min":49,"x_max":412,"o":"m 340 699 q 319 764 340 739 q 267 790 298 790 l 195 790 q 166 783 179 790 q 142 763 153 776 q 126 734 132 751 q 121 699 121 718 l 121 607 q 126 572 121 589 q 142 544 132 556 q 166 524 153 531 q 195 517 179 517 l 267 517 q 295 524 281 517 q 319 544 309 531 q 335 572 329 556 q 340 607 340 589 l 340 699 m 340 335 l 340 395 q 314 349 338 365 q 267 335 294 335 l 195 335 q 92 387 134 335 q 59 446 70 414 q 49 517 49 479 l 49 790 q 59 860 49 828 q 92 918 70 892 q 195 972 134 972 l 267 972 q 371 918 329 972 q 412 790 412 867 l 412 335 l 340 335 z "},"«":{"ha":675,"x_min":49,"x_max":627,"o":"m 293 0 l 49 199 l 49 296 l 293 493 l 335 412 l 131 248 l 335 82 l 293 0 m 585 0 l 340 199 l 340 296 l 585 493 l 627 412 l 422 248 l 627 82 l 585 0 z "},"¬":{"ha":486,"x_min":49,"x_max":437,"o":"m 359 256 l 359 376 l 49 376 l 49 473 l 437 473 l 437 256 l 359 256 z "},"®":{"ha":681,"x_min":49,"x_max":632,"o":"m 389 465 q 378 497 389 484 q 353 510 368 510 l 267 510 l 267 419 l 353 419 q 378 433 368 419 q 389 465 389 448 m 412 146 l 412 273 q 408 307 412 291 q 396 334 404 322 q 377 352 388 345 q 353 358 366 358 l 267 358 l 267 146 l 218 146 l 218 632 l 364 632 q 402 623 385 632 q 433 596 420 613 q 454 557 446 580 q 461 510 461 535 q 445 433 461 464 q 395 389 429 402 q 445 346 429 375 q 461 273 461 317 l 461 146 l 412 146 m 574 583 q 566 630 574 608 q 545 669 558 652 q 514 694 532 685 q 476 704 496 704 l 204 704 q 166 694 184 704 q 135 669 149 685 q 115 630 122 652 q 107 583 107 608 l 107 195 q 115 147 107 170 q 135 108 122 125 q 166 82 149 92 q 204 72 184 72 l 476 72 q 515 81 497 72 q 546 107 532 91 q 566 146 559 123 q 574 195 574 168 l 574 583 m 632 243 q 576 71 632 141 q 437 0 518 0 l 243 0 q 104 71 163 0 q 62 150 76 106 q 49 243 49 193 l 49 534 q 62 628 49 585 q 104 705 76 670 q 243 778 163 778 l 437 778 q 575 705 518 778 q 632 534 632 634 l 632 243 z "},"°":{"ha":330,"x_min":49,"x_max":282,"o":"m 243 888 q 237 925 243 907 q 220 956 231 943 q 196 977 210 969 q 165 985 182 985 q 135 977 149 985 q 110 956 121 969 q 94 925 100 943 q 87 888 87 907 q 94 849 87 867 q 110 818 100 831 q 135 798 121 805 q 165 790 149 790 q 196 798 182 790 q 220 818 210 805 q 237 849 231 831 q 243 888 243 867 m 282 888 q 273 831 282 857 q 248 783 264 804 q 211 752 232 762 q 165 742 189 742 q 120 752 142 742 q 82 783 99 762 q 58 831 66 804 q 49 888 49 857 q 58 944 49 918 q 82 990 66 969 q 120 1022 99 1011 q 165 1034 142 1034 q 211 1022 189 1034 q 248 990 232 1011 q 273 944 264 969 q 282 888 282 918 z "},"±":{"ha":486,"x_min":49,"x_max":437,"o":"m 49 0 l 49 97 l 437 97 l 437 0 l 49 0 m 282 437 l 282 243 l 204 243 l 204 437 l 49 437 l 49 534 l 204 534 l 204 729 l 282 729 l 282 534 l 437 534 l 437 437 l 282 437 z "},"²":{"ha":340,"x_min":49,"x_max":292,"o":"m 49 607 l 49 760 q 56 807 49 785 q 77 845 64 829 q 108 871 90 861 q 146 880 125 880 l 164 880 q 218 928 218 878 q 208 959 218 945 q 182 972 197 972 l 49 972 l 49 1093 l 195 1093 q 232 1084 214 1093 q 263 1058 250 1074 q 284 1020 276 1042 q 292 972 292 998 l 292 942 q 284 895 292 917 q 263 856 276 873 q 232 830 250 840 q 195 821 214 821 l 134 821 q 108 807 119 821 q 97 775 97 794 l 97 729 l 292 729 l 292 607 l 49 607 z "},"³":{"ha":340,"x_min":49,"x_max":292,"o":"m 292 729 q 284 682 292 704 q 263 643 276 660 q 232 617 250 627 q 195 607 214 607 l 49 607 l 49 729 l 182 729 q 208 743 197 729 q 218 775 218 758 q 208 807 218 794 q 182 821 197 821 l 97 821 l 97 880 l 182 880 q 208 895 197 880 q 218 928 218 909 q 208 959 218 945 q 182 972 197 972 l 49 972 l 49 1093 l 195 1093 q 234 1083 216 1093 q 264 1057 252 1074 q 284 1016 277 1040 q 292 966 292 993 q 273 895 292 927 q 225 850 254 863 q 292 729 292 823 z "},"´":{"ha":233,"x_min":49,"x_max":184,"o":"m 126 802 l 49 972 l 126 972 l 184 802 l 126 802 z "},"µ":{"ha":583,"x_min":49,"x_max":534,"o":"m 243 0 q 210 4 227 0 q 180 20 194 9 q 146 82 148 41 l 146 -243 l 49 -243 l 49 850 l 146 850 l 146 364 q 153 317 146 339 q 174 278 161 295 q 205 252 187 262 q 243 243 222 243 l 437 243 l 437 850 l 534 850 l 534 0 l 243 0 z "},"μ":{"ha":583,"x_min":49,"x_max":534,"o":"m 243 0 q 210 4 227 0 q 180 20 194 9 q 146 82 148 41 l 146 -243 l 49 -243 l 49 850 l 146 850 l 146 364 q 153 317 146 339 q 174 278 161 295 q 205 252 187 262 q 243 243 222 243 l 437 243 l 437 850 l 534 850 l 534 0 l 243 0 z "},"¶":{"ha":681,"x_min":49,"x_max":632,"o":"m 534 850 l 534 -243 l 437 -243 l 437 850 l 340 850 l 340 -243 l 243 -243 l 243 425 q 168 444 202 425 q 106 497 134 462 q 49 668 49 568 l 49 729 q 106 900 49 829 q 243 972 163 972 l 632 972 l 632 850 l 534 850 z "},"·":{"ha":233,"x_min":49,"x_max":184,"o":"m 49 340 l 49 510 l 184 510 l 184 340 l 49 340 z "},"¸":{"ha":253,"x_min":49,"x_max":204,"o":"m 204 -146 q 198 -184 204 -166 q 181 -215 192 -201 q 157 -235 171 -228 q 126 -243 142 -243 l 49 -243 l 58 -207 l 126 -207 q 145 -202 136 -207 q 160 -189 154 -197 q 171 -169 167 -180 q 175 -146 175 -158 q 171 -122 175 -134 q 160 -103 167 -111 q 145 -90 154 -94 q 126 -85 136 -85 l 78 -85 l 97 24 l 155 24 l 142 -52 q 167 -64 155 -55 q 186 -86 178 -73 q 199 -114 195 -98 q 204 -146 204 -130 z "},"¹":{"ha":195,"x_min":49,"x_max":146,"o":"m 49 607 l 49 729 l 72 729 l 72 972 l 49 972 l 49 1093 l 121 1093 l 121 729 l 146 729 l 146 607 l 49 607 z "},"º":{"ha":461,"x_min":49,"x_max":412,"o":"m 340 699 q 335 734 340 718 q 319 763 329 751 q 295 783 309 776 q 267 790 281 790 l 195 790 q 166 783 179 790 q 142 763 153 776 q 126 734 132 751 q 121 699 121 718 l 121 607 q 126 572 121 589 q 142 544 132 556 q 166 524 153 531 q 195 517 179 517 l 267 517 q 296 524 282 517 q 319 543 309 530 q 335 571 329 555 q 340 607 340 587 l 340 699 m 412 517 q 371 386 412 440 q 267 335 330 335 l 195 335 q 92 387 134 335 q 59 446 70 414 q 49 517 49 479 l 49 790 q 59 860 49 828 q 92 918 70 892 q 195 972 134 972 l 267 972 q 371 918 329 972 q 412 790 412 867 l 412 517 z "},"»":{"ha":675,"x_min":49,"x_max":627,"o":"m 92 0 l 49 82 l 253 248 l 49 412 l 92 493 l 335 296 l 335 199 l 92 0 m 383 0 l 340 82 l 545 248 l 340 412 l 383 493 l 627 296 l 627 199 l 383 0 z "},"¼":{"ha":486,"x_min":49,"x_max":437,"o":"m 301 0 l 301 68 l 146 68 l 146 292 l 184 292 l 184 165 l 301 165 l 301 389 l 340 389 l 340 0 l 301 0 m 49 450 l 49 522 l 437 522 l 437 450 l 49 450 m 204 583 l 204 681 l 224 681 l 224 875 l 204 875 l 204 972 l 262 972 l 262 681 l 282 681 l 282 583 l 204 583 z "},"½":{"ha":486,"x_min":49,"x_max":437,"o":"m 146 0 l 146 121 q 152 159 146 141 q 169 190 158 176 q 193 211 179 203 q 224 218 208 218 l 253 218 q 282 256 282 218 q 253 292 282 292 l 146 292 l 146 389 l 262 389 q 293 381 279 389 q 318 360 307 373 q 334 329 328 347 q 340 292 340 311 l 340 267 q 334 229 340 247 q 318 198 328 212 q 293 177 307 185 q 262 170 279 170 l 214 170 q 184 134 184 170 l 184 97 l 340 97 l 340 0 l 146 0 m 49 450 l 49 522 l 437 522 l 437 450 l 49 450 m 204 583 l 204 681 l 224 681 l 224 875 l 204 875 l 204 972 l 262 972 l 262 681 l 282 681 l 282 583 l 204 583 z "},"¾":{"ha":486,"x_min":49,"x_max":437,"o":"m 301 0 l 301 68 l 146 68 l 146 292 l 184 292 l 184 165 l 301 165 l 301 389 l 340 389 l 340 0 l 301 0 m 49 450 l 49 522 l 437 522 l 437 450 l 49 450 m 340 681 q 334 643 340 661 q 318 611 328 625 q 293 591 307 598 q 262 583 279 583 l 146 583 l 146 681 l 253 681 q 282 717 282 681 q 253 753 282 753 l 184 753 l 184 802 l 253 802 q 282 839 282 802 q 253 875 282 875 l 146 875 l 146 972 l 262 972 q 293 965 279 972 q 318 944 307 957 q 334 912 328 930 q 340 875 340 895 l 340 869 q 286 778 340 798 q 328 742 315 766 q 340 681 340 718 z "},"¿":{"ha":525,"x_min":49,"x_max":476,"o":"m 243 -122 q 168 -104 202 -122 q 106 -50 134 -85 q 49 121 49 21 q 106 293 49 222 q 243 364 161 364 l 319 364 l 330 558 l 389 558 l 407 243 l 243 243 q 224 238 233 243 q 209 225 216 233 q 198 205 202 216 q 195 182 195 194 q 198 159 195 170 q 209 139 202 148 q 224 126 216 131 q 243 121 233 121 l 476 121 l 476 -122 l 243 -122 m 292 681 l 292 850 l 428 850 l 428 681 l 292 681 z "},"À":{"ha":583,"x_min":49,"x_max":534,"o":"m 437 607 q 430 655 437 633 q 410 694 422 677 q 379 720 397 710 q 340 729 361 729 l 243 729 q 205 720 222 729 q 174 693 187 710 q 153 654 161 677 q 146 607 146 632 l 146 364 l 437 364 l 437 607 m 437 0 l 437 243 l 146 243 l 146 0 l 49 0 l 49 729 q 106 900 49 829 q 243 972 163 972 l 340 972 q 479 901 420 972 q 534 729 534 832 l 534 0 l 437 0 m 262 1044 l 184 1215 l 262 1215 l 321 1044 l 262 1044 z "},"Á":{"ha":583,"x_min":49,"x_max":534,"o":"m 437 607 q 430 655 437 633 q 410 694 422 677 q 379 720 397 710 q 340 729 361 729 l 243 729 q 205 720 222 729 q 174 693 187 710 q 153 654 161 677 q 146 607 146 632 l 146 364 l 437 364 l 437 607 m 437 0 l 437 243 l 146 243 l 146 0 l 49 0 l 49 729 q 106 900 49 829 q 243 972 163 972 l 340 972 q 479 901 420 972 q 534 729 534 832 l 534 0 l 437 0 m 321 1044 l 262 1044 l 321 1215 l 399 1215 l 321 1044 z "},"Â":{"ha":583,"x_min":49,"x_max":534,"o":"m 437 607 q 430 655 437 633 q 410 694 422 677 q 379 720 397 710 q 340 729 361 729 l 243 729 q 205 720 222 729 q 174 693 187 710 q 153 654 161 677 q 146 607 146 632 l 146 364 l 437 364 l 437 607 m 437 0 l 437 243 l 146 243 l 146 0 l 49 0 l 49 729 q 106 900 49 829 q 243 972 163 972 l 340 972 q 479 901 420 972 q 534 729 534 832 l 534 0 l 437 0 m 350 1044 l 292 1147 l 233 1044 l 175 1044 l 253 1215 l 330 1215 l 408 1044 l 350 1044 z "},"Ã":{"ha":583,"x_min":49,"x_max":534,"o":"m 437 607 q 430 655 437 633 q 410 694 422 677 q 379 720 397 710 q 340 729 361 729 l 243 729 q 205 720 222 729 q 174 693 187 710 q 153 654 161 677 q 146 607 146 632 l 146 364 l 437 364 l 437 607 m 437 0 l 437 243 l 146 243 l 146 0 l 49 0 l 49 729 q 106 900 49 829 q 243 972 163 972 l 340 972 q 479 901 420 972 q 534 729 534 832 l 534 0 l 437 0 m 437 1093 q 340 1044 397 1044 q 319 1051 331 1044 q 292 1069 307 1058 q 264 1087 277 1081 q 243 1093 252 1093 q 190 1081 214 1093 q 146 1044 165 1069 l 146 1141 q 190 1179 165 1167 q 243 1190 214 1190 q 292 1166 262 1190 q 319 1148 307 1155 q 340 1141 331 1141 q 437 1190 397 1141 l 437 1093 z "},"Ä":{"ha":583,"x_min":49,"x_max":534,"o":"m 437 607 q 430 655 437 633 q 410 694 422 677 q 379 720 397 710 q 340 729 361 729 l 243 729 q 205 720 222 729 q 174 693 187 710 q 153 654 161 677 q 146 607 146 632 l 146 364 l 437 364 l 437 607 m 437 0 l 437 243 l 146 243 l 146 0 l 49 0 l 49 729 q 106 900 49 829 q 243 972 163 972 l 340 972 q 479 901 420 972 q 534 729 534 832 l 534 0 l 437 0 m 146 1044 l 146 1166 l 243 1166 l 243 1044 l 146 1044 m 340 1044 l 340 1166 l 437 1166 l 437 1044 l 340 1044 z "},"Å":{"ha":583,"x_min":49,"x_max":534,"o":"m 437 607 q 430 655 437 633 q 410 694 422 677 q 379 720 397 710 q 340 729 361 729 l 243 729 q 205 720 222 729 q 174 693 187 710 q 153 654 161 677 q 146 607 146 632 l 146 364 l 437 364 l 437 607 m 370 1069 q 363 1107 370 1089 q 347 1138 357 1124 q 322 1159 336 1151 q 292 1166 308 1166 q 261 1159 275 1166 q 237 1138 248 1151 q 220 1107 226 1124 q 214 1069 214 1089 q 220 1031 214 1049 q 237 1001 226 1014 q 261 980 248 987 q 292 972 275 972 q 322 980 308 972 q 347 1001 336 987 q 363 1031 357 1014 q 370 1069 370 1049 m 437 0 l 437 243 l 146 243 l 146 0 l 49 0 l 49 729 q 59 812 49 773 q 93 885 70 851 q 208 968 139 951 q 183 1015 191 989 q 175 1069 175 1040 q 184 1126 175 1100 q 208 1173 193 1152 q 247 1204 225 1193 q 292 1215 268 1215 q 337 1204 315 1215 q 374 1173 358 1193 q 408 1069 408 1130 q 376 968 408 1010 q 490 885 446 951 q 534 729 534 817 l 534 0 l 437 0 z "},"Æ":{"ha":827,"x_min":49,"x_max":778,"o":"m 437 607 q 430 655 437 633 q 410 694 422 677 q 379 720 397 710 q 340 729 361 729 l 243 729 q 205 720 222 729 q 174 693 187 710 q 153 654 161 677 q 146 607 146 632 l 146 364 l 437 364 l 437 607 m 632 0 q 493 71 551 0 q 437 243 437 141 l 146 243 l 146 0 l 49 0 l 49 729 q 106 900 49 829 q 243 972 163 972 l 301 972 q 437 904 380 972 l 437 972 l 778 972 l 778 729 l 534 729 l 534 547 l 681 547 l 681 425 l 534 425 l 534 364 q 542 316 534 338 q 563 278 549 294 q 593 252 576 262 q 632 243 611 243 l 778 243 l 778 0 l 632 0 z "},"Ç":{"ha":583,"x_min":49,"x_max":534,"o":"m 354 0 l 346 -52 q 371 -64 359 -55 q 391 -86 382 -73 q 404 -114 399 -98 q 408 -146 408 -130 q 402 -184 408 -166 q 386 -215 396 -201 q 361 -235 375 -228 q 330 -243 347 -243 l 253 -243 l 262 -207 l 330 -207 q 349 -202 340 -207 q 365 -189 358 -197 q 375 -169 371 -180 q 379 -146 379 -158 q 375 -122 379 -134 q 365 -103 371 -111 q 349 -90 358 -94 q 330 -85 340 -85 l 282 -85 l 297 0 l 243 0 q 106 72 161 0 q 49 243 49 143 l 49 729 q 106 900 49 829 q 243 972 163 972 l 534 972 l 534 729 l 243 729 q 205 720 222 729 q 174 693 187 710 q 153 654 161 677 q 146 607 146 632 l 146 364 q 153 317 146 339 q 174 278 161 295 q 205 252 187 262 q 243 243 222 243 l 534 243 l 534 0 l 354 0 z "},"È":{"ha":486,"x_min":49,"x_max":437,"o":"m 243 0 q 104 71 163 0 q 62 149 76 106 q 49 243 49 192 l 49 972 l 437 972 l 437 729 l 146 729 l 146 547 l 340 547 l 340 425 l 146 425 l 146 364 q 153 316 146 338 q 174 278 161 294 q 204 252 186 262 q 243 243 222 243 l 437 243 l 437 0 l 243 0 m 214 1044 l 136 1215 l 214 1215 l 272 1044 l 214 1044 z "},"É":{"ha":486,"x_min":49,"x_max":437,"o":"m 243 0 q 104 71 163 0 q 62 149 76 106 q 49 243 49 192 l 49 972 l 437 972 l 437 729 l 146 729 l 146 547 l 340 547 l 340 425 l 146 425 l 146 364 q 153 316 146 338 q 174 278 161 294 q 204 252 186 262 q 243 243 222 243 l 437 243 l 437 0 l 243 0 m 272 1044 l 214 1044 l 272 1215 l 350 1215 l 272 1044 z "},"Ê":{"ha":486,"x_min":49,"x_max":437,"o":"m 243 0 q 104 71 163 0 q 62 149 76 106 q 49 243 49 192 l 49 972 l 437 972 l 437 729 l 146 729 l 146 547 l 340 547 l 340 425 l 146 425 l 146 364 q 153 316 146 338 q 174 278 161 294 q 204 252 186 262 q 243 243 222 243 l 437 243 l 437 0 l 243 0 m 301 1044 l 243 1147 l 184 1044 l 126 1044 l 204 1215 l 282 1215 l 359 1044 l 301 1044 z "},"Ë":{"ha":486,"x_min":49,"x_max":437,"o":"m 243 0 q 104 71 163 0 q 62 149 76 106 q 49 243 49 192 l 49 972 l 437 972 l 437 729 l 146 729 l 146 547 l 340 547 l 340 425 l 146 425 l 146 364 q 153 316 146 338 q 174 278 161 294 q 204 252 186 262 q 243 243 222 243 l 437 243 l 437 0 l 243 0 m 97 1044 l 97 1166 l 195 1166 l 195 1044 l 97 1044 m 292 1044 l 292 1166 l 389 1166 l 389 1044 l 292 1044 z "},"Ì":{"ha":292,"x_min":39,"x_max":243,"o":"m 49 0 l 49 243 l 97 243 l 97 729 l 49 729 l 49 972 l 243 972 l 243 729 l 195 729 l 195 243 l 243 243 l 243 0 l 49 0 m 117 1044 l 39 1215 l 117 1215 l 175 1044 l 117 1044 z "},"Í":{"ha":292,"x_min":49,"x_max":253,"o":"m 49 0 l 49 243 l 97 243 l 97 729 l 49 729 l 49 972 l 243 972 l 243 729 l 195 729 l 195 243 l 243 243 l 243 0 l 49 0 m 175 1044 l 117 1044 l 175 1215 l 253 1215 l 175 1044 z "},"Î":{"ha":292,"x_min":29,"x_max":262,"o":"m 49 0 l 49 243 l 97 243 l 97 729 l 49 729 l 49 972 l 243 972 l 243 729 l 195 729 l 195 243 l 243 243 l 243 0 l 49 0 m 204 1044 l 146 1147 l 87 1044 l 29 1044 l 107 1215 l 184 1215 l 262 1044 l 204 1044 z "},"Ï":{"ha":292,"x_min":0,"x_max":292,"o":"m 49 0 l 49 243 l 97 243 l 97 729 l 49 729 l 49 972 l 243 972 l 243 729 l 195 729 l 195 243 l 243 243 l 243 0 l 49 0 m 0 1044 l 0 1166 l 97 1166 l 97 1044 l 0 1044 m 195 1044 l 195 1166 l 292 1166 l 292 1044 l 195 1044 z "},"Ð":{"ha":656,"x_min":24,"x_max":607,"o":"m 510 607 q 502 654 510 632 q 481 693 494 677 q 450 720 468 710 q 412 729 433 729 l 218 729 l 218 547 l 412 547 l 412 425 l 218 425 l 218 243 l 412 243 q 451 252 433 243 q 483 278 469 262 q 503 316 496 294 q 510 364 510 338 l 510 607 m 607 243 q 551 71 607 141 q 488 18 522 35 q 412 0 454 0 l 121 0 l 121 425 l 24 425 l 24 547 l 121 547 l 121 972 l 412 972 q 550 900 493 972 q 593 822 578 864 q 607 729 607 780 l 607 243 z "},"Ñ":{"ha":583,"x_min":49,"x_max":534,"o":"m 437 0 l 437 607 q 430 655 437 633 q 410 694 422 677 q 379 720 397 710 q 340 729 361 729 l 243 729 q 205 720 222 729 q 174 693 187 710 q 153 654 161 677 q 146 607 146 632 l 146 0 l 49 0 l 49 729 q 104 900 49 830 q 243 972 163 972 l 340 972 q 479 901 420 972 q 534 729 534 832 l 534 0 l 437 0 m 437 1093 q 340 1044 397 1044 q 319 1051 331 1044 q 292 1069 307 1058 q 264 1087 277 1081 q 243 1093 252 1093 q 190 1081 214 1093 q 146 1044 165 1069 l 146 1141 q 190 1179 165 1167 q 243 1190 214 1190 q 292 1166 262 1190 q 319 1148 307 1155 q 340 1141 331 1141 q 437 1190 397 1141 l 437 1093 z "},"Ò":{"ha":583,"x_min":49,"x_max":534,"o":"m 437 607 q 430 654 437 632 q 409 693 422 677 q 378 720 395 710 q 340 729 360 729 l 243 729 q 205 720 222 729 q 174 693 187 710 q 153 654 161 677 q 146 607 146 632 l 146 364 q 153 317 146 339 q 174 278 161 295 q 205 252 187 262 q 243 243 222 243 l 340 243 q 379 252 361 243 q 410 278 397 262 q 430 316 422 294 q 437 364 437 338 l 437 607 m 534 243 q 479 71 534 140 q 340 0 420 0 l 243 0 q 104 71 163 0 q 62 150 76 106 q 49 243 49 193 l 49 729 q 104 900 49 830 q 243 972 163 972 l 340 972 q 478 900 420 972 q 534 729 534 828 l 534 243 m 262 1044 l 184 1215 l 262 1215 l 321 1044 l 262 1044 z "},"Ó":{"ha":583,"x_min":49,"x_max":534,"o":"m 437 607 q 430 654 437 632 q 409 693 422 677 q 378 720 395 710 q 340 729 360 729 l 243 729 q 205 720 222 729 q 174 693 187 710 q 153 654 161 677 q 146 607 146 632 l 146 364 q 153 317 146 339 q 174 278 161 295 q 205 252 187 262 q 243 243 222 243 l 340 243 q 379 252 361 243 q 410 278 397 262 q 430 316 422 294 q 437 364 437 338 l 437 607 m 534 243 q 479 71 534 140 q 340 0 420 0 l 243 0 q 104 71 163 0 q 62 150 76 106 q 49 243 49 193 l 49 729 q 104 900 49 830 q 243 972 163 972 l 340 972 q 478 900 420 972 q 534 729 534 828 l 534 243 m 321 1044 l 262 1044 l 321 1215 l 399 1215 l 321 1044 z "},"Ô":{"ha":583,"x_min":49,"x_max":534,"o":"m 437 607 q 430 654 437 632 q 409 693 422 677 q 378 720 395 710 q 340 729 360 729 l 243 729 q 205 720 222 729 q 174 693 187 710 q 153 654 161 677 q 146 607 146 632 l 146 364 q 153 317 146 339 q 174 278 161 295 q 205 252 187 262 q 243 243 222 243 l 340 243 q 379 252 361 243 q 410 278 397 262 q 430 316 422 294 q 437 364 437 338 l 437 607 m 534 243 q 479 71 534 140 q 340 0 420 0 l 243 0 q 104 71 163 0 q 62 150 76 106 q 49 243 49 193 l 49 729 q 104 900 49 830 q 243 972 163 972 l 340 972 q 478 900 420 972 q 534 729 534 828 l 534 243 m 350 1044 l 292 1147 l 233 1044 l 175 1044 l 253 1215 l 330 1215 l 408 1044 l 350 1044 z "},"Õ":{"ha":583,"x_min":49,"x_max":534,"o":"m 437 607 q 430 654 437 632 q 409 693 422 677 q 378 720 395 710 q 340 729 360 729 l 243 729 q 205 720 222 729 q 174 693 187 710 q 153 654 161 677 q 146 607 146 632 l 146 364 q 153 317 146 339 q 174 278 161 295 q 205 252 187 262 q 243 243 222 243 l 340 243 q 379 252 361 243 q 410 278 397 262 q 430 316 422 294 q 437 364 437 338 l 437 607 m 534 243 q 479 71 534 140 q 340 0 420 0 l 243 0 q 104 71 163 0 q 62 150 76 106 q 49 243 49 193 l 49 729 q 104 900 49 830 q 243 972 163 972 l 340 972 q 478 900 420 972 q 534 729 534 828 l 534 243 m 437 1093 q 340 1044 397 1044 q 319 1051 331 1044 q 292 1069 307 1058 q 264 1087 277 1081 q 243 1093 252 1093 q 190 1081 214 1093 q 146 1044 165 1069 l 146 1141 q 190 1179 165 1167 q 243 1190 214 1190 q 292 1166 262 1190 q 319 1148 307 1155 q 340 1141 331 1141 q 437 1190 397 1141 l 437 1093 z "},"Ö":{"ha":583,"x_min":49,"x_max":534,"o":"m 437 607 q 430 654 437 632 q 409 693 422 677 q 378 720 395 710 q 340 729 360 729 l 243 729 q 205 720 222 729 q 174 693 187 710 q 153 654 161 677 q 146 607 146 632 l 146 364 q 153 317 146 339 q 174 278 161 295 q 205 252 187 262 q 243 243 222 243 l 340 243 q 379 252 361 243 q 410 278 397 262 q 430 316 422 294 q 437 364 437 338 l 437 607 m 534 243 q 479 71 534 140 q 340 0 420 0 l 243 0 q 104 71 163 0 q 62 150 76 106 q 49 243 49 193 l 49 729 q 104 900 49 830 q 243 972 163 972 l 340 972 q 478 900 420 972 q 534 729 534 828 l 534 243 m 146 1044 l 146 1166 l 243 1166 l 243 1044 l 146 1044 m 340 1044 l 340 1166 l 437 1166 l 437 1044 l 340 1044 z "},"×":{"ha":454,"x_min":49,"x_max":406,"o":"m 351 201 l 228 355 l 104 201 l 49 271 l 172 425 l 49 579 l 104 648 l 228 494 l 351 648 l 406 579 l 283 425 l 406 271 l 351 201 z "},"Ø":{"ha":583,"x_min":0,"x_max":583,"o":"m 437 607 q 434 636 437 623 q 425 665 431 650 l 192 262 q 243 243 216 243 l 340 243 q 379 252 361 243 q 410 278 397 262 q 430 316 422 294 q 437 364 437 338 l 437 607 m 392 710 q 367 725 379 720 q 340 729 354 729 l 243 729 q 205 720 222 729 q 174 693 187 710 q 153 654 161 677 q 146 607 146 632 l 146 364 q 158 307 146 334 l 392 710 m 519 825 q 531 778 527 802 q 534 729 534 754 l 534 243 q 479 71 534 140 q 340 0 420 0 l 243 0 q 92 92 151 0 l 39 0 l 0 36 l 64 147 q 52 194 56 170 q 49 243 49 217 l 49 729 q 104 900 49 830 q 243 972 163 972 l 340 972 q 492 880 432 972 l 545 972 l 583 936 l 519 825 z "},"Ù":{"ha":583,"x_min":49,"x_max":534,"o":"m 534 243 q 479 71 534 140 q 340 0 420 0 l 243 0 q 104 71 163 0 q 62 150 76 106 q 49 243 49 193 l 49 972 l 146 972 l 146 364 q 153 317 146 339 q 174 278 161 295 q 205 252 187 262 q 243 243 222 243 l 340 243 q 379 252 361 243 q 410 278 397 262 q 430 316 422 294 q 437 364 437 338 l 437 972 l 534 972 l 534 243 m 262 1044 l 184 1215 l 262 1215 l 321 1044 l 262 1044 z "},"Ú":{"ha":583,"x_min":49,"x_max":534,"o":"m 534 243 q 479 71 534 140 q 340 0 420 0 l 243 0 q 104 71 163 0 q 62 150 76 106 q 49 243 49 193 l 49 972 l 146 972 l 146 364 q 153 317 146 339 q 174 278 161 295 q 205 252 187 262 q 243 243 222 243 l 340 243 q 379 252 361 243 q 410 278 397 262 q 430 316 422 294 q 437 364 437 338 l 437 972 l 534 972 l 534 243 m 321 1044 l 262 1044 l 321 1215 l 399 1215 l 321 1044 z "},"Û":{"ha":583,"x_min":49,"x_max":534,"o":"m 534 243 q 479 71 534 140 q 340 0 420 0 l 243 0 q 104 71 163 0 q 62 150 76 106 q 49 243 49 193 l 49 972 l 146 972 l 146 364 q 153 317 146 339 q 174 278 161 295 q 205 252 187 262 q 243 243 222 243 l 340 243 q 379 252 361 243 q 410 278 397 262 q 430 316 422 294 q 437 364 437 338 l 437 972 l 534 972 l 534 243 m 350 1044 l 292 1147 l 233 1044 l 175 1044 l 253 1215 l 330 1215 l 408 1044 l 350 1044 z "},"Ü":{"ha":583,"x_min":49,"x_max":534,"o":"m 534 243 q 479 71 534 140 q 340 0 420 0 l 243 0 q 104 71 163 0 q 62 150 76 106 q 49 243 49 193 l 49 972 l 146 972 l 146 364 q 153 317 146 339 q 174 278 161 295 q 205 252 187 262 q 243 243 222 243 l 340 243 q 379 252 361 243 q 410 278 397 262 q 430 316 422 294 q 437 364 437 338 l 437 972 l 534 972 l 534 243 m 146 1044 l 146 1166 l 243 1166 l 243 1044 l 146 1044 m 340 1044 l 340 1166 l 437 1166 l 437 1044 l 340 1044 z "},"Ý":{"ha":583,"x_min":49,"x_max":534,"o":"m 534 534 q 479 363 534 432 q 340 292 420 292 l 340 0 l 243 0 l 243 292 q 106 363 161 292 q 63 441 77 398 q 49 534 49 484 l 49 972 l 146 972 l 146 656 q 153 609 146 631 q 174 570 161 587 q 205 544 187 553 q 243 534 222 534 l 340 534 q 379 544 361 534 q 410 570 397 553 q 430 608 422 586 q 437 656 437 630 l 437 972 l 534 972 l 534 534 m 321 1044 l 262 1044 l 321 1215 l 399 1215 l 321 1044 z "},"Þ":{"ha":583,"x_min":49,"x_max":534,"o":"m 389 425 q 383 460 389 444 q 367 489 377 477 q 343 509 357 502 q 315 517 330 517 l 146 517 l 146 335 l 315 335 q 343 342 330 335 q 367 361 357 349 q 383 390 377 374 q 389 425 389 406 m 534 456 q 478 285 534 355 q 415 231 450 249 q 340 212 380 212 l 146 212 l 146 0 l 49 0 l 49 972 l 146 972 l 146 760 l 340 760 q 415 741 380 760 q 478 688 450 723 q 534 517 534 616 l 534 456 z "},"ß":{"ha":583,"x_min":49,"x_max":534,"o":"m 534 243 q 478 72 534 144 q 340 0 421 0 l 243 0 l 243 243 l 315 243 q 343 250 330 243 q 367 270 357 258 q 383 299 377 283 q 389 335 389 316 q 383 370 389 353 q 367 398 377 386 q 343 418 357 410 q 315 425 330 425 l 243 425 l 243 547 l 315 547 q 343 554 330 547 q 367 574 357 562 q 383 602 377 586 q 389 637 389 618 q 383 673 389 656 q 367 702 377 690 q 343 722 357 715 q 315 729 330 729 l 218 729 q 190 722 203 729 q 167 702 177 715 q 152 673 157 690 q 146 637 146 656 l 146 -122 l 49 -122 l 49 729 q 62 823 49 781 q 104 901 76 866 q 243 972 162 972 l 340 972 q 478 900 420 972 q 534 729 534 828 l 534 717 q 525 642 534 678 q 497 575 516 606 q 454 520 478 543 q 401 486 431 498 q 457 450 433 473 q 499 394 482 426 q 525 323 516 362 q 534 243 534 285 z "},"à":{"ha":583,"x_min":49,"x_max":534,"o":"m 437 486 q 430 534 437 512 q 410 572 422 556 q 379 598 397 589 q 340 607 361 607 l 243 607 q 205 597 222 607 q 174 572 187 588 q 153 533 161 555 q 146 486 146 511 l 146 364 q 153 317 146 339 q 174 278 161 295 q 205 252 187 262 q 243 243 222 243 l 340 243 q 378 252 360 243 q 409 278 395 262 q 430 317 422 295 q 437 364 437 339 l 437 486 m 437 0 l 437 82 q 403 20 435 41 q 373 4 388 9 q 340 0 357 0 l 243 0 q 106 72 161 0 q 49 243 49 143 l 49 607 q 106 779 49 708 q 243 850 161 850 l 340 850 q 415 833 381 850 q 479 781 450 817 q 521 701 508 745 q 534 607 534 658 l 534 0 l 437 0 m 262 924 l 184 1093 l 262 1093 l 321 924 l 262 924 z "},"á":{"ha":583,"x_min":49,"x_max":534,"o":"m 437 486 q 430 534 437 512 q 410 572 422 556 q 379 598 397 589 q 340 607 361 607 l 243 607 q 205 597 222 607 q 174 572 187 588 q 153 533 161 555 q 146 486 146 511 l 146 364 q 153 317 146 339 q 174 278 161 295 q 205 252 187 262 q 243 243 222 243 l 340 243 q 378 252 360 243 q 409 278 395 262 q 430 317 422 295 q 437 364 437 339 l 437 486 m 437 0 l 437 82 q 403 20 435 41 q 373 4 388 9 q 340 0 357 0 l 243 0 q 106 72 161 0 q 49 243 49 143 l 49 607 q 106 779 49 708 q 243 850 161 850 l 340 850 q 415 833 381 850 q 479 781 450 817 q 521 701 508 745 q 534 607 534 658 l 534 0 l 437 0 m 321 924 l 262 924 l 321 1093 l 399 1093 l 321 924 z "},"â":{"ha":583,"x_min":49,"x_max":534,"o":"m 437 486 q 430 534 437 512 q 410 572 422 556 q 379 598 397 589 q 340 607 361 607 l 243 607 q 205 597 222 607 q 174 572 187 588 q 153 533 161 555 q 146 486 146 511 l 146 364 q 153 317 146 339 q 174 278 161 295 q 205 252 187 262 q 243 243 222 243 l 340 243 q 378 252 360 243 q 409 278 395 262 q 430 317 422 295 q 437 364 437 339 l 437 486 m 437 0 l 437 82 q 403 20 435 41 q 373 4 388 9 q 340 0 357 0 l 243 0 q 106 72 161 0 q 49 243 49 143 l 49 607 q 106 779 49 708 q 243 850 161 850 l 340 850 q 415 833 381 850 q 479 781 450 817 q 521 701 508 745 q 534 607 534 658 l 534 0 l 437 0 m 350 924 l 292 1025 l 233 924 l 175 924 l 253 1093 l 330 1093 l 408 924 l 350 924 z "},"ã":{"ha":583,"x_min":49,"x_max":534,"o":"m 437 486 q 430 534 437 512 q 410 572 422 556 q 379 598 397 589 q 340 607 361 607 l 243 607 q 205 597 222 607 q 174 572 187 588 q 153 533 161 555 q 146 486 146 511 l 146 364 q 153 317 146 339 q 174 278 161 295 q 205 252 187 262 q 243 243 222 243 l 340 243 q 378 252 360 243 q 409 278 395 262 q 430 317 422 295 q 437 364 437 339 l 437 486 m 437 0 l 437 82 q 403 20 435 41 q 373 4 388 9 q 340 0 357 0 l 243 0 q 106 72 161 0 q 49 243 49 143 l 49 607 q 106 779 49 708 q 243 850 161 850 l 340 850 q 415 833 381 850 q 479 781 450 817 q 521 701 508 745 q 534 607 534 658 l 534 0 l 437 0 m 437 972 q 393 935 418 947 q 340 924 369 924 q 292 947 321 924 q 243 972 261 972 q 190 961 214 972 q 146 924 165 949 l 146 1021 q 190 1058 165 1046 q 243 1069 214 1069 q 292 1044 262 1069 q 319 1027 307 1033 q 340 1021 331 1021 q 393 1033 369 1021 q 437 1069 418 1044 l 437 972 z "},"ä":{"ha":583,"x_min":49,"x_max":534,"o":"m 437 486 q 430 534 437 512 q 410 572 422 556 q 379 598 397 589 q 340 607 361 607 l 243 607 q 205 597 222 607 q 174 572 187 588 q 153 533 161 555 q 146 486 146 511 l 146 364 q 153 317 146 339 q 174 278 161 295 q 205 252 187 262 q 243 243 222 243 l 340 243 q 378 252 360 243 q 409 278 395 262 q 430 317 422 295 q 437 364 437 339 l 437 486 m 437 0 l 437 82 q 403 20 435 41 q 373 4 388 9 q 340 0 357 0 l 243 0 q 106 72 161 0 q 49 243 49 143 l 49 607 q 106 779 49 708 q 243 850 161 850 l 340 850 q 415 833 381 850 q 479 781 450 817 q 521 701 508 745 q 534 607 534 658 l 534 0 l 437 0 m 146 924 l 146 1044 l 243 1044 l 243 924 l 146 924 m 340 924 l 340 1044 l 437 1044 l 437 924 l 340 924 z "},"å":{"ha":583,"x_min":49,"x_max":534,"o":"m 437 486 q 430 534 437 512 q 410 572 422 556 q 379 598 397 589 q 340 607 361 607 l 243 607 q 205 597 222 607 q 174 572 187 588 q 153 533 161 555 q 146 486 146 511 l 146 364 q 153 317 146 339 q 174 278 161 295 q 205 252 187 262 q 243 243 222 243 l 340 243 q 378 252 360 243 q 409 278 395 262 q 430 317 422 295 q 437 364 437 339 l 437 486 m 370 1069 q 363 1107 370 1089 q 347 1138 357 1124 q 322 1159 336 1151 q 292 1166 308 1166 q 261 1159 275 1166 q 237 1138 248 1151 q 220 1107 226 1124 q 214 1069 214 1089 q 220 1031 214 1049 q 237 1001 226 1014 q 261 980 248 987 q 292 972 275 972 q 322 980 308 972 q 347 1001 336 987 q 363 1031 357 1014 q 370 1069 370 1049 m 437 0 l 437 82 q 403 20 435 41 q 373 4 388 9 q 340 0 357 0 l 243 0 q 106 72 161 0 q 49 243 49 143 l 49 607 q 106 779 49 708 q 243 850 161 850 l 340 850 q 415 833 381 850 q 479 781 450 817 q 521 701 508 745 q 534 607 534 658 l 534 0 l 437 0 m 408 1069 q 374 966 408 1009 q 337 934 358 945 q 292 924 315 924 q 247 934 268 924 q 208 966 225 945 q 184 1013 193 987 q 175 1069 175 1039 q 184 1126 175 1100 q 208 1173 193 1152 q 247 1204 225 1193 q 292 1215 268 1215 q 337 1204 315 1215 q 374 1173 358 1193 q 408 1069 408 1130 z "},"æ":{"ha":875,"x_min":49,"x_max":827,"o":"m 437 486 q 430 534 437 512 q 410 572 422 556 q 379 598 397 589 q 340 607 361 607 l 243 607 q 205 597 222 607 q 174 572 187 588 q 153 533 161 555 q 146 486 146 511 l 146 364 q 153 317 146 339 q 174 278 161 295 q 205 252 187 262 q 243 243 222 243 l 340 243 q 378 252 360 243 q 409 278 395 262 q 430 317 422 295 q 437 364 437 339 l 437 486 m 671 0 q 534 71 591 0 l 534 0 l 437 0 l 437 82 q 403 20 435 41 q 373 4 388 9 q 340 0 357 0 l 243 0 q 106 72 161 0 q 49 243 49 143 l 49 607 q 106 779 49 708 q 243 850 161 850 l 301 850 q 362 838 333 850 q 416 805 391 826 q 458 753 440 783 q 486 685 476 722 q 557 804 505 759 q 611 839 582 827 q 671 850 640 850 l 827 850 l 827 607 l 632 607 q 594 597 612 607 q 563 572 576 588 q 542 533 549 555 q 534 486 534 511 l 729 486 l 729 364 l 534 364 q 542 317 534 339 q 563 278 549 295 q 594 252 576 262 q 632 243 612 243 l 827 243 l 827 0 l 671 0 z "},"ç":{"ha":583,"x_min":49,"x_max":534,"o":"m 354 0 l 346 -52 q 371 -64 359 -55 q 391 -86 382 -73 q 404 -114 399 -98 q 408 -146 408 -130 q 402 -184 408 -166 q 386 -215 396 -201 q 361 -235 375 -228 q 330 -243 347 -243 l 253 -243 l 262 -207 l 330 -207 q 349 -202 340 -207 q 365 -189 358 -197 q 375 -169 371 -180 q 379 -146 379 -158 q 375 -122 379 -134 q 365 -103 371 -111 q 349 -90 358 -94 q 330 -85 340 -85 l 282 -85 l 297 0 l 243 0 q 106 72 161 0 q 49 243 49 143 l 49 607 q 106 779 49 708 q 243 850 161 850 l 534 850 l 534 607 l 243 607 q 205 597 222 607 q 174 572 187 588 q 153 533 161 555 q 146 486 146 511 l 146 364 q 153 317 146 339 q 174 278 161 295 q 205 252 187 262 q 243 243 222 243 l 534 243 l 534 0 l 354 0 z "},"è":{"ha":583,"x_min":49,"x_max":534,"o":"m 243 0 q 106 72 161 0 q 49 243 49 143 l 49 607 q 106 779 49 708 q 243 850 161 850 l 534 850 l 534 607 l 243 607 q 205 597 222 607 q 174 572 187 588 q 153 533 161 555 q 146 486 146 511 l 437 486 l 437 364 l 146 364 q 153 317 146 339 q 174 278 161 295 q 205 252 187 262 q 243 243 222 243 l 534 243 l 534 0 l 243 0 m 262 924 l 184 1093 l 262 1093 l 321 924 l 262 924 z "},"é":{"ha":583,"x_min":49,"x_max":534,"o":"m 243 0 q 106 72 161 0 q 49 243 49 143 l 49 607 q 106 779 49 708 q 243 850 161 850 l 534 850 l 534 607 l 243 607 q 205 597 222 607 q 174 572 187 588 q 153 533 161 555 q 146 486 146 511 l 437 486 l 437 364 l 146 364 q 153 317 146 339 q 174 278 161 295 q 205 252 187 262 q 243 243 222 243 l 534 243 l 534 0 l 243 0 m 321 924 l 262 924 l 321 1093 l 399 1093 l 321 924 z "},"ê":{"ha":583,"x_min":49,"x_max":534,"o":"m 243 0 q 106 72 161 0 q 49 243 49 143 l 49 607 q 106 779 49 708 q 243 850 161 850 l 534 850 l 534 607 l 243 607 q 205 597 222 607 q 174 572 187 588 q 153 533 161 555 q 146 486 146 511 l 437 486 l 437 364 l 146 364 q 153 317 146 339 q 174 278 161 295 q 205 252 187 262 q 243 243 222 243 l 534 243 l 534 0 l 243 0 m 350 924 l 292 1025 l 233 924 l 175 924 l 253 1093 l 330 1093 l 408 924 l 350 924 z "},"ë":{"ha":583,"x_min":49,"x_max":534,"o":"m 243 0 q 106 72 161 0 q 49 243 49 143 l 49 607 q 106 779 49 708 q 243 850 161 850 l 534 850 l 534 607 l 243 607 q 205 597 222 607 q 174 572 187 588 q 153 533 161 555 q 146 486 146 511 l 437 486 l 437 364 l 146 364 q 153 317 146 339 q 174 278 161 295 q 205 252 187 262 q 243 243 222 243 l 534 243 l 534 0 l 243 0 m 146 924 l 146 1044 l 243 1044 l 243 924 l 146 924 m 340 924 l 340 1044 l 437 1044 l 437 924 l 340 924 z "},"ì":{"ha":195,"x_min":-9,"x_max":146,"o":"m 49 0 l 49 850 l 146 850 l 146 0 l 49 0 m 68 924 l -9 1093 l 68 1093 l 126 924 l 68 924 z "},"í":{"ha":195,"x_min":49,"x_max":204,"o":"m 49 0 l 49 850 l 146 850 l 146 0 l 49 0 m 126 924 l 68 924 l 126 1093 l 204 1093 l 126 924 z "},"î":{"ha":195,"x_min":-20,"x_max":214,"o":"m 49 0 l 49 850 l 146 850 l 146 0 l 49 0 m 155 924 l 97 1025 l 39 924 l -20 924 l 58 1093 l 136 1093 l 214 924 l 155 924 z "},"ï":{"ha":195,"x_min":-49,"x_max":243,"o":"m 49 0 l 49 850 l 146 850 l 146 0 l 49 0 m -49 924 l -49 1044 l 49 1044 l 49 924 l -49 924 m 146 924 l 146 1044 l 243 1044 l 243 924 l 146 924 z "},"ð":{"ha":583,"x_min":49,"x_max":632,"o":"m 437 486 q 430 533 437 511 q 409 572 422 555 q 378 597 395 588 q 340 607 360 607 l 243 607 q 205 597 222 607 q 174 572 187 588 q 153 533 161 555 q 146 486 146 511 l 146 364 q 153 317 146 339 q 174 278 161 295 q 205 252 187 262 q 243 243 222 243 l 340 243 q 379 252 361 243 q 410 278 397 262 q 430 316 422 294 q 437 364 437 338 l 437 486 m 534 911 l 534 243 q 479 71 534 140 q 340 0 420 0 l 243 0 q 106 72 161 0 q 49 243 49 143 l 49 607 q 106 779 49 708 q 243 850 161 850 l 340 850 q 373 845 357 850 q 403 831 388 841 q 428 804 420 819 q 437 770 436 788 l 437 911 l 340 911 l 340 1034 l 632 1034 l 632 911 l 534 911 z "},"ñ":{"ha":583,"x_min":49,"x_max":534,"o":"m 437 0 l 437 486 q 430 534 437 512 q 410 572 422 556 q 379 598 397 589 q 340 607 361 607 l 243 607 q 205 597 222 607 q 174 572 187 588 q 153 533 161 555 q 146 486 146 511 l 146 0 l 49 0 l 49 607 q 104 779 49 709 q 243 850 162 850 l 340 850 q 415 833 381 850 q 479 781 450 817 q 521 701 508 745 q 534 607 534 658 l 534 0 l 437 0 m 437 972 q 393 935 418 947 q 340 924 369 924 q 292 947 321 924 q 243 972 261 972 q 190 961 214 972 q 146 924 165 949 l 146 1021 q 190 1058 165 1046 q 243 1069 214 1069 q 292 1044 262 1069 q 319 1027 307 1033 q 340 1021 331 1021 q 393 1033 369 1021 q 437 1069 418 1044 l 437 972 z "},"ò":{"ha":583,"x_min":49,"x_max":534,"o":"m 437 486 q 430 533 437 511 q 409 572 422 555 q 378 597 395 588 q 340 607 360 607 l 243 607 q 205 597 222 607 q 174 572 187 588 q 153 533 161 555 q 146 486 146 511 l 146 364 q 153 317 146 339 q 174 278 161 295 q 205 252 187 262 q 243 243 222 243 l 340 243 q 379 252 361 243 q 410 278 397 262 q 430 316 422 294 q 437 364 437 338 l 437 486 m 534 243 q 479 71 534 140 q 340 0 420 0 l 243 0 q 104 71 163 0 q 62 150 76 106 q 49 243 49 193 l 49 607 q 104 779 49 709 q 243 850 162 850 l 340 850 q 415 832 380 850 q 478 779 450 815 q 534 607 534 707 l 534 243 m 262 924 l 184 1093 l 262 1093 l 321 924 l 262 924 z "},"ó":{"ha":583,"x_min":49,"x_max":534,"o":"m 437 486 q 430 533 437 511 q 409 572 422 555 q 378 597 395 588 q 340 607 360 607 l 243 607 q 205 597 222 607 q 174 572 187 588 q 153 533 161 555 q 146 486 146 511 l 146 364 q 153 317 146 339 q 174 278 161 295 q 205 252 187 262 q 243 243 222 243 l 340 243 q 379 252 361 243 q 410 278 397 262 q 430 316 422 294 q 437 364 437 338 l 437 486 m 534 243 q 479 71 534 140 q 340 0 420 0 l 243 0 q 104 71 163 0 q 62 150 76 106 q 49 243 49 193 l 49 607 q 104 779 49 709 q 243 850 162 850 l 340 850 q 415 832 380 850 q 478 779 450 815 q 534 607 534 707 l 534 243 m 321 924 l 262 924 l 321 1093 l 399 1093 l 321 924 z "},"ô":{"ha":583,"x_min":49,"x_max":534,"o":"m 437 486 q 430 533 437 511 q 409 572 422 555 q 378 597 395 588 q 340 607 360 607 l 243 607 q 205 597 222 607 q 174 572 187 588 q 153 533 161 555 q 146 486 146 511 l 146 364 q 153 317 146 339 q 174 278 161 295 q 205 252 187 262 q 243 243 222 243 l 340 243 q 379 252 361 243 q 410 278 397 262 q 430 316 422 294 q 437 364 437 338 l 437 486 m 534 243 q 479 71 534 140 q 340 0 420 0 l 243 0 q 104 71 163 0 q 62 150 76 106 q 49 243 49 193 l 49 607 q 104 779 49 709 q 243 850 162 850 l 340 850 q 415 832 380 850 q 478 779 450 815 q 534 607 534 707 l 534 243 m 350 924 l 292 1025 l 233 924 l 175 924 l 253 1093 l 330 1093 l 408 924 l 350 924 z "},"õ":{"ha":583,"x_min":49,"x_max":534,"o":"m 437 486 q 430 533 437 511 q 409 572 422 555 q 378 597 395 588 q 340 607 360 607 l 243 607 q 205 597 222 607 q 174 572 187 588 q 153 533 161 555 q 146 486 146 511 l 146 364 q 153 317 146 339 q 174 278 161 295 q 205 252 187 262 q 243 243 222 243 l 340 243 q 379 252 361 243 q 410 278 397 262 q 430 316 422 294 q 437 364 437 338 l 437 486 m 534 243 q 479 71 534 140 q 340 0 420 0 l 243 0 q 104 71 163 0 q 62 150 76 106 q 49 243 49 193 l 49 607 q 104 779 49 709 q 243 850 162 850 l 340 850 q 415 832 380 850 q 478 779 450 815 q 534 607 534 707 l 534 243 m 437 972 q 393 935 418 947 q 340 924 369 924 q 292 947 321 924 q 243 972 261 972 q 190 961 214 972 q 146 924 165 949 l 146 1021 q 190 1058 165 1046 q 243 1069 214 1069 q 292 1044 262 1069 q 319 1027 307 1033 q 340 1021 331 1021 q 393 1033 369 1021 q 437 1069 418 1044 l 437 972 z "},"ö":{"ha":583,"x_min":49,"x_max":534,"o":"m 437 486 q 430 533 437 511 q 409 572 422 555 q 378 597 395 588 q 340 607 360 607 l 243 607 q 205 597 222 607 q 174 572 187 588 q 153 533 161 555 q 146 486 146 511 l 146 364 q 153 317 146 339 q 174 278 161 295 q 205 252 187 262 q 243 243 222 243 l 340 243 q 379 252 361 243 q 410 278 397 262 q 430 316 422 294 q 437 364 437 338 l 437 486 m 534 243 q 479 71 534 140 q 340 0 420 0 l 243 0 q 104 71 163 0 q 62 150 76 106 q 49 243 49 193 l 49 607 q 104 779 49 709 q 243 850 162 850 l 340 850 q 415 832 380 850 q 478 779 450 815 q 534 607 534 707 l 534 243 m 146 924 l 146 1044 l 243 1044 l 243 924 l 146 924 m 340 924 l 340 1044 l 437 1044 l 437 924 l 340 924 z "},"÷":{"ha":486,"x_min":49,"x_max":437,"o":"m 175 85 l 175 256 l 311 256 l 311 85 l 175 85 m 49 376 l 49 473 l 437 473 l 437 376 l 49 376 m 175 596 l 175 765 l 311 765 l 311 596 l 175 596 z "},"ø":{"ha":583,"x_min":0,"x_max":583,"o":"m 382 597 q 361 605 372 603 q 340 607 351 607 l 243 607 q 205 597 222 607 q 174 572 187 588 q 153 533 161 555 q 146 486 146 511 l 146 364 q 151 323 146 342 q 170 286 157 303 l 382 597 m 437 486 q 432 529 437 509 q 414 566 427 548 l 201 254 q 221 246 212 249 q 243 243 231 243 l 340 243 q 379 252 361 243 q 410 278 397 262 q 430 316 422 294 q 437 364 437 338 l 437 486 m 515 714 q 530 663 525 689 q 534 607 534 636 l 534 243 q 479 71 534 140 q 340 0 420 0 l 243 0 q 92 92 151 0 l 29 0 l 0 36 l 68 138 q 49 243 49 187 l 49 607 q 104 779 49 709 q 243 850 162 850 l 340 850 q 492 760 435 850 l 554 850 l 583 814 l 515 714 z "},"ù":{"ha":583,"x_min":49,"x_max":534,"o":"m 534 243 q 479 71 534 140 q 340 0 420 0 l 243 0 q 104 71 163 0 q 62 150 76 106 q 49 243 49 193 l 49 850 l 146 850 l 146 364 q 153 317 146 339 q 174 278 161 295 q 205 252 187 262 q 243 243 222 243 l 340 243 q 379 252 361 243 q 410 278 397 262 q 430 316 422 294 q 437 364 437 338 l 437 850 l 534 850 l 534 243 m 262 924 l 184 1093 l 262 1093 l 321 924 l 262 924 z "},"ú":{"ha":583,"x_min":49,"x_max":534,"o":"m 534 243 q 479 71 534 140 q 340 0 420 0 l 243 0 q 104 71 163 0 q 62 150 76 106 q 49 243 49 193 l 49 850 l 146 850 l 146 364 q 153 317 146 339 q 174 278 161 295 q 205 252 187 262 q 243 243 222 243 l 340 243 q 379 252 361 243 q 410 278 397 262 q 430 316 422 294 q 437 364 437 338 l 437 850 l 534 850 l 534 243 m 321 924 l 262 924 l 321 1093 l 399 1093 l 321 924 z "},"û":{"ha":583,"x_min":49,"x_max":534,"o":"m 534 243 q 479 71 534 140 q 340 0 420 0 l 243 0 q 104 71 163 0 q 62 150 76 106 q 49 243 49 193 l 49 850 l 146 850 l 146 364 q 153 317 146 339 q 174 278 161 295 q 205 252 187 262 q 243 243 222 243 l 340 243 q 379 252 361 243 q 410 278 397 262 q 430 316 422 294 q 437 364 437 338 l 437 850 l 534 850 l 534 243 m 350 924 l 292 1025 l 233 924 l 175 924 l 253 1093 l 330 1093 l 408 924 l 350 924 z "},"ü":{"ha":583,"x_min":49,"x_max":534,"o":"m 534 243 q 479 71 534 140 q 340 0 420 0 l 243 0 q 104 71 163 0 q 62 150 76 106 q 49 243 49 193 l 49 850 l 146 850 l 146 364 q 153 317 146 339 q 174 278 161 295 q 205 252 187 262 q 243 243 222 243 l 340 243 q 379 252 361 243 q 410 278 397 262 q 430 316 422 294 q 437 364 437 338 l 437 850 l 534 850 l 534 243 m 146 924 l 146 1044 l 243 1044 l 243 924 l 146 924 m 340 924 l 340 1044 l 437 1044 l 437 924 l 340 924 z "},"ý":{"ha":583,"x_min":49,"x_max":534,"o":"m 534 -122 q 479 -294 534 -225 q 340 -366 420 -366 l 243 -366 l 243 -122 l 340 -122 q 379 -113 361 -122 q 410 -87 397 -103 q 430 -48 422 -71 q 437 0 437 -26 l 437 82 q 403 20 435 41 q 373 4 388 9 q 340 0 358 0 l 243 0 q 106 72 161 0 q 49 243 49 143 l 49 850 l 146 850 l 146 364 q 153 317 146 339 q 174 278 161 295 q 205 252 187 262 q 243 243 222 243 l 340 243 q 379 252 361 243 q 410 278 397 262 q 430 316 422 294 q 437 364 437 338 l 437 850 l 534 850 l 534 -122 m 321 924 l 262 924 l 321 1093 l 399 1093 l 321 924 z "},"þ":{"ha":583,"x_min":49,"x_max":534,"o":"m 437 364 q 430 412 437 389 q 409 451 422 434 q 378 477 395 467 q 340 486 360 486 l 146 486 l 146 243 l 340 243 q 378 252 360 243 q 409 278 395 262 q 430 317 422 295 q 437 364 437 339 m 534 243 q 478 72 534 144 q 340 0 421 0 l 146 0 l 146 -243 l 49 -243 l 49 972 l 146 972 l 146 729 l 340 729 q 415 711 380 729 q 478 657 450 692 q 534 486 534 585 l 534 243 z "},"ÿ":{"ha":583,"x_min":49,"x_max":534,"o":"m 534 -122 q 479 -294 534 -225 q 340 -366 420 -366 l 243 -366 l 243 -122 l 340 -122 q 379 -113 361 -122 q 410 -87 397 -103 q 430 -48 422 -71 q 437 0 437 -26 l 437 82 q 403 20 435 41 q 373 4 388 9 q 340 0 357 0 l 243 0 q 106 72 161 0 q 49 243 49 143 l 49 850 l 146 850 l 146 364 q 153 317 146 339 q 174 278 161 295 q 205 252 187 262 q 243 243 222 243 l 340 243 q 379 252 361 243 q 410 278 397 262 q 430 316 422 294 q 437 364 437 338 l 437 850 l 534 850 l 534 -122 m 146 924 l 146 1044 l 243 1044 l 243 924 l 146 924 m 340 924 l 340 1044 l 437 1044 l 437 924 l 340 924 z "},"¯":{"ha":437,"x_min":0,"x_max":437,"o":"m 0 850 l 0 972 l 437 972 l 437 850 l 0 850 z "},"ˉ":{"ha":437,"x_min":0,"x_max":437,"o":"m 0 850 l 0 972 l 437 972 l 437 850 l 0 850 z "},"ı":{"ha":195,"x_min":49,"x_max":146,"o":"m 49 0 l 49 850 l 146 850 l 146 0 l 49 0 z "},"ˇ":{"ha":330,"x_min":49,"x_max":282,"o":"m 204 802 l 126 802 l 49 972 l 107 972 l 165 869 l 224 972 l 282 972 l 204 802 z "},"˘":{"ha":1371,"x_min":61,"x_max":1310,"o":"m 465 293 l 465 518 l 543 518 l 543 293 l 465 293 m 812 160 l 521 160 l 547 220 l 790 220 l 694 456 l 693 456 l 693 517 l 760 517 l 760 693 l 465 693 l 465 911 l 329 911 l 329 456 l 151 456 l 151 61 l 852 61 l 812 160 m 1244 146 q 1092 236 1244 236 l 961 236 l 961 296 l 1104 296 q 1143 301 1125 296 q 1177 317 1161 307 q 1203 344 1194 330 q 1213 378 1213 359 q 1171 440 1213 420 q 1136 452 1155 449 q 1093 456 1116 456 l 757 456 l 921 60 l 1092 60 q 1150 62 1125 60 q 1190 72 1175 64 q 1244 146 1244 92 m 1310 136 q 1251 33 1310 71 q 1132 0 1204 0 l 90 0 l 90 515 l 267 515 l 267 911 l 122 911 l 122 839 l 61 839 l 72 972 l 597 972 l 597 911 l 530 911 l 530 753 l 822 753 l 822 515 l 1197 515 l 1197 633 l 1257 633 l 1257 456 l 1253 456 q 1271 423 1264 441 q 1278 382 1278 405 q 1260 314 1278 342 q 1207 269 1242 287 q 1310 136 1310 237 m 1194 793 l 1185 909 l 940 909 l 940 753 l 1071 753 l 1071 818 l 1131 818 l 1131 627 l 1071 627 l 1071 692 l 878 692 l 878 971 l 1253 971 l 1253 793 l 1194 793 z "},"˚":{"ha":330,"x_min":49,"x_max":282,"o":"m 243 827 q 237 864 243 846 q 220 895 231 882 q 196 916 210 908 q 165 924 182 924 q 135 916 149 924 q 110 895 121 908 q 94 864 100 882 q 87 827 87 846 q 94 788 87 806 q 110 757 100 770 q 135 736 121 744 q 165 729 149 729 q 196 736 182 729 q 220 757 210 744 q 237 788 231 770 q 243 827 243 806 m 282 827 q 273 770 282 796 q 248 724 264 745 q 211 691 232 702 q 165 681 189 681 q 120 691 142 681 q 82 724 99 702 q 58 770 66 745 q 49 827 49 796 q 58 883 49 857 q 82 929 66 908 q 120 961 99 950 q 165 972 142 972 q 211 961 189 972 q 248 929 232 950 q 273 883 264 908 q 282 827 282 857 z "},"−":{"ha":486,"x_min":49,"x_max":437,"o":"m 49 376 l 49 473 l 437 473 l 437 376 l 49 376 z "}," ":{"ha":437,"x_min":0,"x_max":0,"o":""}}}
